<mxfile host="app.diagrams.net" modified="2021-08-31T12:08:41.554Z" agent="5.0 (Windows)" etag="0GnYHkhJS32BU2n8SJNF" version="15.0.3" type="github">
  <diagram id="C5RBs43oDa-KdzZeNtuy" name="Page-1">
    <mxGraphModel dx="1970" dy="1626" grid="1" gridSize="10" guides="0" tooltips="1" connect="1" arrows="1" fold="1" page="1" pageScale="1" pageWidth="827" pageHeight="1169" math="0" shadow="0">
      <root>
        <mxCell id="WIyWlLk6GJQsqaUBKTNV-0" />
        <mxCell id="WIyWlLk6GJQsqaUBKTNV-1" parent="WIyWlLk6GJQsqaUBKTNV-0" />
        <mxCell id="WeWkUzsG9HBNJlI6EVqi-81" value="" style="rounded=1;whiteSpace=wrap;html=1;fontSize=12;align=left;" parent="WIyWlLk6GJQsqaUBKTNV-1" vertex="1">
          <mxGeometry x="-340" y="260" width="970" height="240" as="geometry" />
        </mxCell>
        <mxCell id="yuqtkiq20FRywVHpOGbv-2" value="GLOBAL FAULT HANDLER" style="text;html=1;strokeColor=none;fillColor=none;align=center;verticalAlign=middle;whiteSpace=wrap;rounded=0;fontStyle=1" parent="WIyWlLk6GJQsqaUBKTNV-1" vertex="1">
          <mxGeometry x="440" y="140" width="120" height="16" as="geometry" />
        </mxCell>
        <mxCell id="WeWkUzsG9HBNJlI6EVqi-79" value="" style="aspect=fixed;html=1;points=[];align=center;image;fontSize=12;image=img/lib/azure2/general/Globe_Error.svg;" parent="WIyWlLk6GJQsqaUBKTNV-1" vertex="1">
          <mxGeometry x="390" y="690" width="30.55" height="36" as="geometry" />
        </mxCell>
        <mxCell id="WeWkUzsG9HBNJlI6EVqi-88" value="" style="edgeStyle=orthogonalEdgeStyle;rounded=0;orthogonalLoop=1;jettySize=auto;html=1;fontSize=12;" parent="WIyWlLk6GJQsqaUBKTNV-1" source="WeWkUzsG9HBNJlI6EVqi-83" target="WeWkUzsG9HBNJlI6EVqi-87" edge="1">
          <mxGeometry relative="1" as="geometry" />
        </mxCell>
        <mxCell id="WeWkUzsG9HBNJlI6EVqi-99" value="" style="edgeStyle=orthogonalEdgeStyle;rounded=0;orthogonalLoop=1;jettySize=auto;html=1;fontSize=12;" parent="WIyWlLk6GJQsqaUBKTNV-1" source="WeWkUzsG9HBNJlI6EVqi-83" target="WeWkUzsG9HBNJlI6EVqi-87" edge="1">
          <mxGeometry relative="1" as="geometry" />
        </mxCell>
        <mxCell id="WeWkUzsG9HBNJlI6EVqi-83" value="" style="points=[[0.5,0,0],[1,0.5,0],[0.5,1,0],[0,0.5,0],[0.145,0.145,0],[0.8555,0.145,0],[0.855,0.8555,0],[0.145,0.855,0]];verticalLabelPosition=bottom;html=1;verticalAlign=top;aspect=fixed;align=center;pointerEvents=1;shape=mxgraph.cisco19.rect;prIcon=clock;fillColor=#FAFAFA;strokeColor=#005073;" parent="WIyWlLk6GJQsqaUBKTNV-1" vertex="1">
          <mxGeometry x="-330" y="350" width="50" height="50" as="geometry" />
        </mxCell>
        <mxCell id="WeWkUzsG9HBNJlI6EVqi-86" value="" style="rounded=1;whiteSpace=wrap;html=1;fontSize=12;align=left;" parent="WIyWlLk6GJQsqaUBKTNV-1" vertex="1">
          <mxGeometry x="-110" y="270" width="720" height="211" as="geometry" />
        </mxCell>
        <mxCell id="WeWkUzsG9HBNJlI6EVqi-87" value="&lt;div style=&quot;font-size: 10px&quot;&gt;Fetch based on Status=&lt;/div&gt;&lt;div style=&quot;font-size: 10px&quot;&gt;&lt;b style=&quot;font-size: 10px&quot;&gt;URA_INV_TMOUT or &lt;br&gt;&lt;/b&gt;&lt;/div&gt;&lt;div style=&quot;font-size: 10px&quot;&gt;&lt;b style=&quot;font-size: 9px&quot;&gt;URA_INV_ONLY_RCVD&lt;/b&gt;&lt;/div&gt;&lt;div style=&quot;font-size: 10px&quot;&gt;&lt;b style=&quot;font-size: 9px&quot;&gt;&lt;br&gt;&lt;/b&gt;&lt;/div&gt;&lt;div style=&quot;font-size: 10px&quot;&gt;&lt;div style=&quot;font-size: 10px&quot;&gt; 2)update status =&lt;/div&gt;  &lt;b style=&quot;font-size: 10px&quot;&gt;URA_INV_RETRY_PICK&lt;/b&gt;&lt;/div&gt;" style="rounded=1;whiteSpace=wrap;html=1;fontSize=10;align=left;" parent="WIyWlLk6GJQsqaUBKTNV-1" vertex="1">
          <mxGeometry x="-270" y="300" width="130" height="150" as="geometry" />
        </mxCell>
        <mxCell id="WeWkUzsG9HBNJlI6EVqi-91" value="&lt;b style=&quot;font-size: 10px;&quot;&gt;Scope T106_T108&lt;/b&gt;" style="text;html=1;strokeColor=none;fillColor=none;align=center;verticalAlign=middle;whiteSpace=wrap;rounded=0;fontSize=10;" parent="WIyWlLk6GJQsqaUBKTNV-1" vertex="1">
          <mxGeometry x="-120" y="250" width="140" height="60" as="geometry" />
        </mxCell>
        <mxCell id="WeWkUzsG9HBNJlI6EVqi-92" value="" style="shape=image;verticalLabelPosition=bottom;labelBackgroundColor=#ffffff;verticalAlign=top;aspect=fixed;imageAspect=0;image=data:image/png,iVBORw0KGgoAAAANSUhEUgAAAEQAAABfCAYAAABRAmHqAAAHV0lEQVR4nO2c7W/bxh3H+W/VSRNka7MWSoIVS4YhWeCiQNcNA/aiW2Zkr4phwFDsqQNW2I7dOHGzpH7o4sKr7HZL0jhpnMRp6jq2LFmSFcvPImVZJCWKEsnPXvhhES3LpiybVsIv8AVsyXe8++B3vzvekRbwVCTB7QbsN3lAbPKA2OQBsckDYpMHxCYPiE0eEJuKgMSnp7n/cIjPev9ds75x8xbRyUlyur4zILIs4+//oqjyu/cGd8h775XJZPnq9gCx2NOKyq8DCYZCG2jXIhAAUZIqbrsHxCYPiE0eEJs8IDZ5QGzygNjkAbHJA2KTB8QmD4hNHhCbdgWIBeiGhaIbpDSDdM4gVzAxrYqqc6x9BWQNxoSk8enYEk0PF7kyLPFoRkXVjT2Bsm+AGJaFmCnw4f0FTl4N89qlIK9eDPKDtiDHPw7R0B8nkMiS32Uq+wKIZYGiG/xjcIETH09w8EKAl5rG1l3XPMbRtiC/6n3K5ccirUMJOkaSfDunktYMjCpC2hdAdMMikMhyvD20AcY6lKYxDjYHePXiSuT4Loc42xnh4qMEs7JO3qgOFNeBWMCyZvDJiMSR1vGSMDZzXdMYh1oC/O3reeblPLphkTcsrB2wcR1I3rSIJHP8aWCOwy2lo2Mr+9pDND5Y5HZMZmQ+g6qbFUNxDYhpQUjU+Ovded7sjnKsPcSBZucwXmoa4+ULAV6/FORHV8Oc7ojwm74pHk6rqLrpuFOuAMkbFiFR41xfnNcuBamrEMRmPtwS4GfXJ7nzVHaccF0BktIM3h+Y45WLznKG06g51x9HyhQcDZ8dAbk5+JhofJbBoW8cAYkt5Vam1+bKcsZ2fbojwsNp1VGUiJLErdt36O77yrGFD9q6+KCti+7efkdAJiSNwy2Bqg8Vu09eDTMQkylUAGStb068DqSjp89xhPzwysYF2E58sDnA0bYgpzsinOmMcLojwrv+KZ4sZDAcjJkdAen58g7fPAlxZ/CBIyDJbIHf35zllYvj1FUIoO6Z2eVYe4hT18L88fYc9+IKA09l7k0pDM9nWMruYQ5Z+6GSWSaQ0DjbFeVI6zgHKsglh1oCnLoWpmUoQdeTJF+ElwmKGn0Ty/z5zjytjxIk1ILjTrkCxGJlQTaeyPKHW7OcvBrmkMPh82Z3lEczKsuawf1phc9DKTqfJHnXP8XRtiBvX58knNRqA8iacgWTOTnPyHyGwbjC11Pb99hilgUlT8eIxFufTvLGPyc41h7i+x+Nc6B5jPruKA+mVS49Fvltf5yG/ji3JtP7G4hTWRaousmimmcmrRNIZDnTGSm55K/vjnI7JvO7L6d5+UKAQy0BWoYSW16jpoAUTItv5zK8d2OGX/un+MVnMQ5uMnXXd0e5N6Xw/sAcp66F+fG1MNfHlra8Rk0B0Q2L/oll3rgywYHmsbLrmPruKEFRw7TAMC0M09rWjltNASmYFkMzKuf647zTE6O+O7rpDWF9d5TBuMJf7s7z084IZ7si9AZTW16jpoBYFsg5gzk5z9SyzpOFDD/5JMyhFzWH2KXoBpcfi5zpjHC8PcTrl4IcaR2nbnWWuT+t8OH9Rd7pifHznhj9E8tb1lnTQNZ26R9Mq/QElrj8WOSXvTG+99E4b/1rkgmpxtYh1dAalGzeRMoUuB5Y4r0bM/z93gKLat5xfTUP5FkZpoWsGyyqeVKaQa7gfB/xuQJSDXlAbPKA2OQBsckDYpMHxCYPiE0eEJs8IDZ5QGyqChBFUZ4bIMPfjTAzO1tR2aJXzL4bGaH3c38RkFrzf/57gwdDQ2Sz2Z0DAcjpOqIk1axlWa4IxKZAXnR5QGzygNjkAbGpLBDLstB1HVVVkWWZ5eXlfel0Oo2iKGiahmEY1QdSKBSQZZlEIlGTTqVS5HK56gBRFMX1DlUTTKHg7HGKdSCmaZJKpVzvxG7YSbQIazCSyaTrDd9Na9r2zncE4LmNDLvz+a3PeARVVV1v6F55aWnrRykEtxu5185kMh6QZy1J0m4AGaXxhIAglHGDf0M5f4OAr2m05Of/L3sev/16w434nqm7VB1OrJf57zPViZC+86U7UqLT9s6MNvmKyvobBIQTjYwW1S1wvq8YzvrvFVhRFDeB+DkvCAiCD98JO5CV74o79+xnq5FoizZ/Q+kI3K5Tqc2fQtp1IKNNvtXGr3SuCMhwIz7BR+Pwxmha+btSwHbucnlkz4ZMSSCblFuPgHVga1FWnRwiimItA7El2tXPdgKlxoFsHFL2ROzU+3fIbJVDNvl+e9fb3OVWrO4C2eYsY0+qo02+4qnZocvtzLsMZLvrkOrmkHJ3vq4DWYdQbqW6ujir1ixjlXkb6YW7lym3SgUQ0um0643cK4uiiGmWfzFaME0TSZJcb+xeeDvnvQKAruuuN3a3vdVQKQICkMvlXG+02zCKgMDKeczztr/q9LGIkgdV2Wy25nfhFUWp6BSv7FGmrusoikIqlUKSJERR3LdOJpOk02k0TdtyJqkYyIuo/wH7/YvaR/EphAAAAABJRU5ErkJggg==;fontSize=12;" parent="WIyWlLk6GJQsqaUBKTNV-1" vertex="1">
          <mxGeometry x="30" y="300" width="50.1" height="70" as="geometry" />
        </mxCell>
        <mxCell id="WeWkUzsG9HBNJlI6EVqi-94" value="" style="shape=image;verticalLabelPosition=bottom;labelBackgroundColor=#ffffff;verticalAlign=top;aspect=fixed;imageAspect=0;image=data:image/png,iVBORw0KGgoAAAANSUhEUgAAAPEAAAA0CAYAAABb7t4OAAAKFUlEQVR4nO2d608b2RmH90/gI/8Hn0IIaUq60baWelmtWvEBpCaiq6J1slKrNrK0UpUG1G1CmpGyChADuQFRdylu0na7CdsCYbNLNBjStc0lGYy5meBiAtgO9sz8+sEc93g8Y+zxcJnd95GOFDyeOccz88z7njNzJm9Ag6qqUFUViqJQofKNKS9Ciwfehr0qb2gFVhQFsixr3SYI4pCSkZgJrKoqvF4vamtrUV5ejrKyMipUqBzCUl5ejtra2myJZVmG1+tFcG6OChUqNikZiRVFAQDU1tairKwMjY2NiEQi+5oWEARROJFIBI2NjbkSsxSaBCaIw08kEsmVmOXbBEHYA5KYIGwOSUwQNockJgibQxIThM0hiQnC5pDEBGFzSGKCsDkkMUHYHMslVgEoKpBSVKQUFbKiQlHTnxMEYT2WS7wtqwitb2N8OYanC1v4TziO5Y0kkgppTBB7gWUSqwDW4il8NrMO18N5vH13Bqe6JvGz3uf4/b8WMRzcwMZrec+jsyRJcDgcqKioyCoOhwOSJAEAotEo6uvrc75TUVEBl8uFRCIBAPB4PFnLBEEAACQSCbhcLt31Kyoq4PF4im63IAior69HNBrNfGbUTr6Noihm1mPtMlP/fsG31yza48IXURQtbK09sERiFUAipaDft4Z3umdQ1erHkeu+TKlq9aPuzy/wyddrGF3YgrgYQ2h9G0nZeo0lSUJdXV1GWIYgCJmTn8mR74B7PJ6ck00QhIzIDCvEiUajcLlccLlcWW3Sayerj7XDDhLz+80qifkL2bcdSySWFRW+lTjeux9EVasflZzArFS3+/H23Rmc7pNwpk/Cbz4N4bZ3FS+3kpBV1bKobCQx/3khEusJK0kSnE5n1glohTgejweCIOScnEbt5EWwm8RWQBJnY4nESVlFv38NP7g5lSOvUals9eH7Nyfx4dASYkkFikUiWyWxXiTWoxBxRFE0POnY+qIo5rS9VIlZ9sFSctal0NtHvGh8l4TvhuRbpu1isDbxqa8gCDmRmF/O7yOjtrN18kksiiKcTiecTiccDgeGh4fhdDoz7WP7UxAEw64SW2blxWevKEliNhIdSyroEF/ieLu/YImPXPfhaKsPb3ZOot+/hlhSwbacHtEuZQysmHQ6X59Ke1LuJqHZ6KeN7iwiA6Wn04IgZJ38bB+w9F2vHm2d/MVMu4yvm2UTevvEKJ3Wazv7nlHbE4mEYZ+YLRdFMetYsgsPf4z4CwH7XR6PJ9OOUiL9xNIIesev4srQ+2gaaEDL0Pvo9V7F+OJjU9vbDdMSKyqQVNIj0be9qzjTJ6GqrTiJmciOW1P4ed8LnP9sHn+biiKakE0PfBkNbPFX/0IisdE2re4TezyerHX5qF3qwJY2jeVPXP7fkiShubk5I4DRviq0P8tLoW0Hvw1t+/ItM2q7Htp2ai/seseMbVN7gSuG8OY8up42o2mgwbB0Pr2I5Y25oredD9MSJ1IKhoIb+MndaRxv96f7wq3FCXzkug+VOyIfa/Ojut2PGncAvxtYQGh9G7KJkGyUkvIHpViJ+W07HA7dyGjmoO+WERTSTrMSR6NROJ1OSJKUdSHJ1y/PJw+Lfiz1rauryytxOBzO2W/7JbHefi1V4vDmfCby7lZaBs9ZKrJpiX0rcfzw9jSOmhB3t/JddwDXvlzBWqL4V+fqpdNa+XaTgz/BtZ8bpbdmJDbqK7MTeC8lZst7enrQ3Nyc+a1mIrG23kLT6W9SJN4tAjcNNODO2CU8nL6HpoEGdIxeLGr7+TAt8QePFnCsTX8kutTCbkmJi1tF/yCjPnG+vp0eevdt9Qa7SpGY7//ysJMwGAzuqcQsevLfKaZPzPZ1IBDI6afz98vN9on3SmLt9vT6xMUcz4mlkV0FvjZyHolUDABwZ+wSmgYa4F0cKriOfJiW2HFryrIozFLqqp2U+jvtfrzVNYnPX7wq+gcZScwOlMvlQjgcNkxjjUZOjQa3zI5OG7WTb2tPT8+eSmx0MSt0dJofPOLTaVavVmqXy4UnT54Y7mNtlpBP4nwP2hQiMavDaHS6GIl7x6/uKvHK5jwAYDT0KPNZt/dKwXXkw7TEJzsClkXhylYfatwB/PafIfxhaAkfDi3h0vAyfCtxS34kQewlu/WFR0OPAAArm/NZn18ePGtJ/aYl/kX/LKpKSKcrW9Npc3W7HyduBPDT3hmE1rexta0glkyXFD1vTdgAXsyH0/cy/d6mgQZ8/OwjAMDrVBzXRs7nCG4FpiXu96+hxh0wnVJXt/lx9kEQXWOr+ItvDQ+fryORUuB/GcfVL8L4MrRpanSaIPabFnY/ePBc5rO5tSl8/OyjnH5wdiR2WlK/aYkjsRSEL8I46Q4UHZErr/vwq7+H4F2K4dVrGfGdyLvxWsan0+s41TmJu+ORPXm2miCsptf7/z6x+6sLmf4vY1i6r5tmd4+1WFJ/SQ97rGwm8cnXa3jXM4s3OydR3ebHsQJKdbsfnkAUiZSCeEpB90QE5x7M4XSfhHd6ZlDjDuCWdxXxlJKZl0ypNXFYGV98nCPosHQfADAXnTLsK48tDFpSv2mJVQCyqiKeVLAWT2FlK4nwZmFlZTOJ+E6f9+bYKk51TqYfGGnz42irDyduBHBrbBV/HF7Cj+5M48d3p/Hrf4Qs+cEEsRd0Pr2YI6n7qwtoGTynK7B79IJlde/763kUNT1hIpFKp8+1957jaKsvKx0/3u7HrbFVXPh8ETXuAE52BPDLvwYLroO/dWA0z1eSJLjd7szf/LPS2nvBbHva2y0EwVjemDMUVlsu/duJpVezltW97xJvyyouP15GjTuA6p3Iq+1PH2/3p9PppIKkrKaLiXRaFEXdWShMSl5q/sELfj3+/qTR9ggCSIvcMZobkbUR2EqBgQOQOKWo6J6I4L37QbzbP4sad+79ZibxTCQB71IM40sxTK0WP6NEO7kAQNaDCPyTR2wCAPvb7XYbPn5JEPnwLg6h23sFlwfPZkahu8daLOsDa9l3iVUAqppOq7dlFWcfBA3T6Q8eLaCqNT0YdqaveJF4UXkSiUTW88J6M4nYumxeql3mlhLfPg70lbWKqmJwdgOn+yR8r2MS1e1pYU/cSI9O3w9EcWVkGX8aCaN7orj/L1krKo828mplZ1J7PJ5MP5ifvE8Qh4kDlVhFek7y04Ut3Hv2X3TtRF92i2m7hPvEWlF5tH1bt9udNcOFyc+ew2UYRXaCOEgO/OXxqpp+RxcbsX74/BXe6ppE90SkpHvD+QahtOmzdj4t/+A+/8oa7fu1COIwcOAS8ygqsBpLQVzcwuKrbciqeYn1BrUY2ojKT87Xzjai20vEYedQScze2aWoavrFefSQFkHsyqGSmCCI4iGJCcLmkMQEYXNIYoKwOSQxQdgcXYmDc3NUqFCxSaFITBA2hyQmCJtDEhOEzSGJCcLm/A8vUjfbW4FeKwAAAABJRU5ErkJggg==;direction=south;" parent="WIyWlLk6GJQsqaUBKTNV-1" vertex="1">
          <mxGeometry x="510" y="270" width="40.99" height="190" as="geometry" />
        </mxCell>
        <mxCell id="WeWkUzsG9HBNJlI6EVqi-95" value="" style="shape=image;verticalLabelPosition=bottom;labelBackgroundColor=#ffffff;verticalAlign=top;aspect=fixed;imageAspect=0;image=data:image/png,iVBORw0KGgoAAAANSUhEUgAAAOkAAAAuCAYAAADN2j7vAAAJpUlEQVR4nO2d+3MT1xXH+Z/8U22TmMckpBUtSdP8VruZzDhDYVQy05m01bQNw9SeSQiZ2TZMZEsBDMZlCgmCSYbEUbB5BDCsARdLloTX8iNgWQLJz5W82v32B3HVq9XuWquHWdrzmbmDtau99+ju/e455+7dZQsIgnA0W563AQRBWLMlPj0NKlSoOLeQJyUIh0MiJQiHQyIlCIdDIiUIh0MiJQiHQyIlCIdDIiUIh0MiJQiHQyIlCIdTlUg1AHlVw3peQy5f+DevadC0OltHEIR9kWoAZEVFJCljeGoJ38YyuBZfxtTTLHL5zVGpJElwuVxoamoqKS6XC5IkAQDS6TQ6OjrKvtPU1ASPxwNZlgEAgUCgZJ8gCAAAWZbh8XgMj29qakIgELBttyAI6OjoQDqdLm4zs5O3URTF4nHMrmra3yx4e6tFf174IopiHa11PrZEqgF4vLSOM2NPcOCraew5FcWu4xN483QM71+awcVwGk/WlFLv2gCjJUlCe3t7UZAMQRCKg5sNfqsTGggEygaTIAhFoTLqIYx0Og2PxwOPx1Nik5GdrD1mx4sgUr7f6iVS/kL1/0zFItU0YCWn4sRoErv7Imj1hvCTz8aLpcU7jrcGYvCOJHApmsHgw0WEF2SsratQ66xUM5Hy2ysRqZEgJUmC2+0uGWD1EEYgEIAgCGWDz8xOfqC/aCKtByTS/1KxSNdVDbfnVtD5pYRW7ziaOYGysrUnhNeOT+D1/ih+2R/Dr/81ia6hHzGTyUFR65ez1kukRp7UiEqEIYqi6aBix4uiWGZ7rSJl0QMLmVnIb9RHvJD4lIFPE6z26VMAZhMfmgqCUOZJ+f18H5nZzo6xEqkoinC73XC73XC5XLh69SrcbnfRPtafgiCYpjJsXz0vLo2gIpGyPPTM2BO8emyiTJxmpdk7jm2+MPZfiCMt55F7FgKrGmoKg+2Eu1Y5jX7QbSSyar2X3jszjwrUHu4KglAyuFkfsPDaqB19m/zFSr+Pb5tFA0Z9YhbuGtnOvmdmuyzLpjkp2y+KYsm5ZBcW/hzxQme/KxAIFO14UTz1hiLVtIIXTa4qOHozgbbeUMUiZWFwmy+Mo7cSmFvMIbmqYCWnQqkhBjabOOKv3pV4UrM6652TBgKBkmN5r1vrxJE+zOQHJv+3JEno7u4uDnCzvqo0n+QHvd4Ovg69fVb7zGw3Qm+n/sJtdM5YnfoLmF00TcWd2cvoHz2Cw0NudAU7cXjIjf7Rj3F79nuoWr6qes2wFKmiakitKrgsLeJvl3/EWwMxbO2xJ9Lmz8bR4g1huy+M3X0RvH1Owqc35/EgsVZ1vmoWMvKdblekfN0ul8vQs1VzUjfy6JXYWa1I0+k03G43JEkquVBY5cVW4mDei4Wm7e3tliKdn58v67fNEqlRv9ZDpJOpBzj6w5/QFew0LZ9e/yMepv5tu24zLEWaWlXQM5LAruMTaDHJQ+2Itdlb8Kxbe0L47YUp3Jxdgayoto02Cnf14tpo8PMDWL/dLPys5qSa5apsgDZSpGz/wMAAuru7i7+1Gk+qb7fScPd/yZNGk/csxakvEwujtuo3w1Kk50NP8dMTEbR4qxenWdnmC+OD4Bzi6axto81yUqvcygij+5ZGk0m1iJTPP3nYIIvH4w0VKfN+/Hfs5KSsr8PhcFmezN8vrjYnbZRI9fUZ5aR2zufa+jI+ufLehsIcjJ5BZOEujgwfwMfDv8NKbqniNsywFOk7X0jY2hOqyYOaedTWnhDe6I/iWtz+jzATKTsRHo8H8/PzpmGm2cyj2eRRtbO7Znbytg4MDDRUpGYXq0pnd/nJGT7cZe3qRevxeHDjxg3TPtZ7eSuRWi0kqUSkrA2z2V07Ir0iXdhQoGfHjgIAssoa/LcOoSvYiaHJ8xW3YYalSHf4w3Xzos3Pwtw2Xxg7Pw/jlWMT+FlfBMHJxZp/BEE0Gt+tg5YC9d86BFlZBQCcGj1c3N5z8681t20p0t0nI2jx2psoKp80KnjNl3tDeL0/iuGpJcxkcpjN5DC7mMNKzn5OShCbTXfw3aLwjgwfwJHhAyWf55dnAACD0TNlAq4VS5Ee+n4Obb4Qmqv0pq3eEHZ+HsYvTkbxq4EY9l+MYymbR1rOY355HU/XFKxv0npfgqiFLk6kieVZZOQUzo4dRVewE9PpCABg7NEPhl62VixFGl5Yw9vnJLT5wmXLACvxom/0R3HqXgrTmRwWs3ksZfNYzOYxGMtgz6ko/jmW2rRF+QRRC703Dxa95sjMd8XtGTkFAEgszxoK1HvjLzW3bSnSXF7DrdkV/P7rGew5FbU1idTiHUfP7QWk5TxkRcV4Yg3fxjIIhNL48Moj7Do+gb67yapuwRDEZjM8GSjLQRPLswAKQuXDX74MPfyy5rYtRappQFbRID3N4utIBidGk/DdWYDv9sbFf2cBsZSMXF7D9ell7LsQx2vHI9jmC+Ol3kIYfGI0iW9iGfjuFL5/PvS05h9EEI1gdX3JUIiD0TPFmVx9OTzkxnIuU3PbDXkzg4aCwFUNyCoq3vtqGq06L7zdXxDpnwdn0doTwku9IbzzRfmtCjP4qXWz5zwlSYLf7y9+5tfqGt3MN7odQRCMyMKorcUM4UR9nnttiEhzeQ2n76fgvhjHu+ensMMfLpt82u4Po280iUhSxt1Hq7j3eBUTSfuLnUVRNHyKgYmYFy2/sIAdxz+hYlUfQQDAw9QY/nH9D5bi/Pu19xFN3q9bmw0Rqayo+OT6Y7x6bAJtvlCZF+VFupQt5KyyoiJbRX6qX7wOoORGO79yhi0wZ5/9fj9kWS5ZMsc/6UEQRuRVBSMzQZwUP8KHl/ejK9iJDy/vw0nxI4zMfAdFXa9rew0RqaoVFudn8xqWc3n85uwkWr3G4e4HwTls94Wxwx/G3vNTttvihchjJD79Qm/9aplqX4tCEI2k4W8LVFQN5x48wZunY9jhD+Pl3hC29oSw85lIvSMJ7A1MYd+FOLqHH9mqWy9EHr3n1IuZiZZfzqcPfQnCCTRcpJpWCH+/iWZw+OpjHAzOYW9gCq8cm0DfaBKr6+qzB8ELxQ56IfLoc0u/31/yhAQTt168Zp6ZIJ4Xm/LeXRb+yoqKpWwel6IZ/PxkBKfv17aYwWqSRx/e6p+nZMfx243eb0QQz5tNfzl2XtUwt5hDcHIRD5/INb2hwWjSiKH3iPxtFv5JDP62DN1+IZzIpotU0wpCZYVeqE0Q1tB/M0EQDodEShAOh0RKEA6HREoQDodEShAOh0RKEA5nS3x6GlSoUHFuIU9KEA7nPySavhPSI3L+AAAAAElFTkSuQmCC;direction=south;" parent="WIyWlLk6GJQsqaUBKTNV-1" vertex="1">
          <mxGeometry x="550" y="270" width="37.51" height="190" as="geometry" />
        </mxCell>
        <mxCell id="mXnRrFpc8J4dxXeiY_ru-36" style="edgeStyle=orthogonalEdgeStyle;rounded=0;orthogonalLoop=1;jettySize=auto;html=1;entryX=0.75;entryY=1;entryDx=0;entryDy=0;fontSize=10;" parent="WIyWlLk6GJQsqaUBKTNV-1" source="WeWkUzsG9HBNJlI6EVqi-96" target="WeWkUzsG9HBNJlI6EVqi-98" edge="1">
          <mxGeometry relative="1" as="geometry" />
        </mxCell>
        <mxCell id="WeWkUzsG9HBNJlI6EVqi-96" value="" style="shape=image;verticalLabelPosition=bottom;labelBackgroundColor=#ffffff;verticalAlign=top;aspect=fixed;imageAspect=0;image=data:image/png,iVBORw0KGgoAAAANSUhEUgAAAEQAAABfCAYAAABRAmHqAAAHJ0lEQVR4nO2c23PbVB7H9W9RUjaUAtvxtrtLgCndhwWG3enAzk6H6bTkAWbgiWF4KOxCLk2TbFqXpNdN2iZpM22hhWYYIE1bx7fYzq2JE0uyJFvWzZK+PJiE+MSxJdmu7FTfme9DHB+dcz46v3NOfjoKBU9FotxuQKPJA0LIA0LIA0LIA0LIA0LIA0LIA0KoCAjH8whHIk3tXE6qDZBHgRkMX7laZLc758TXJyYQTySqA6JpGq6NjW8B0ozKZDL49rs7jstTAEAzzBYYzQoEQFVt94AQ8oAQ8oAQ8oAQ8oAQ8oAQ8oAQ8oAQ8oAQ8oAQ8oAQqjkQ0wQkzcACpyKYkhCmZTwWVCh5A6bpuJ221DBA5LyBUEpG7y80jo4t4O2LCbxzKYEPri9hYIpGIq1AzhuOG2tVDQHENIEILePY+CL2nArhmc6ZDe/qmsGeUyF8OLGEnx+LiLMK4qyCZUGFqOrQjdoOHdeBmCYgawY+mljC8z3FMDa7pSuIP5+Oos0/i9e/mcX7owu4GuLA5PKoJRPXgWiGiZk1CX+/EMeurtIw1v1sVwFMS1cQz50M4uW+ML74IYk1UXPcCVKuAjFMIKPouDHL49Wzs2VhlPKurhm84o/i5E8pRBkZi7yKjKJXNWJcA8Lk8rg7n8F/Jlfx3sgc9vZuHy7l/NzJIA6cjuDw8ByOji7gv5OrmFzMIqvojlYmV4Bwso7BhyzeGIyhpUKY2PUfTgbx5oU4vk1koOgm7DJxBch4lMcbQ7Gagtjs3d1BHByMYYFXkbcZP64AOXJtYcvyWmu/3BfG0EMWvKzbBrKUTDkydaLvPIZGrtsG8trZWbR0BesKZG9vCF9NroKV8raBnOg778jUib7z6PZfsg3kn5fn0Fpmz+FktWntCeLVs7M4NBTDoaEY3rqYwIUAC0GxP0KqAnLm8qhtIP1TNP56Jlpx31EJwou9YfgGInjFH8W/r85jPMrjdkLA7YSAHxayWORVqLr9OWTy/owjO55DlgUNn9xaxt7eEFq6g9hlE0ZL1wz29Yfx6XfLOPuAwXCIw/2VHKaTOXz94xo6flxDmJahO1h3XZlUddPEsqCi/xcab16I44VTITxrY7Ts6w/j8kwaq1kNgTUJI6E0zj1i8fndFew/HcHBwRhuxgVoDnZorm3MNMMEJ+uIswoCqxIeJAt32IqDaxJ4WceduQz+NTKHv5yJYv9ABC/2hrC7O4g2fxRXwhxuzPI4Nr6Id0fm8MW9ZGMDcSJRM5DMaoinFcTTCo5cm8cLJZbvNn8U/w+m4X/AYP9ABLu7g3j7YtxSHU0FZElQ8cmtZRwensPh4Tm81BcuGVLrI2QixuP4+CLeG5nHl/dWLdXRVECCKQn/uJxAa08IrT3bzztt/iiuz/LIqgayqg5B0SGq1pJLTQVkNauhf4rGZ3dW8NmdFfxpIFJyhWrzRzEcSuN8gMXBwRj29YdxdGzBUh1NBUTVTQiKDjqXB53L4+Obj/HHEmHz1MwhpEIpGZ/fTeKti3EcOhfD/tMRtPYUVplrEQ4PkjkMPWTxvyka41He0jWbGohhAikxj1BKxv2VHM49YvG3czG8cymBu/MZ23/pAk0OZLMME3gsqLgVF3AzLmBJUB1lznYMEKAARTNMaIbpOI24o4DUQh4QQh4QQh4QQh4QQh4QQh4QQh4QQh4QQlUDyeWkHQNEUVWM35hwXH7jBaKp+9NbgNAM03S+ees2gqFQ9UCyoohYPI7v7002tZPJVWia87Mm3kuIhDwghDwghDwghDwghCwBMU0ThmFA1/WGs2EYMGt4RHpbIIqiQBAEsCyLVCrV8GZZFplMBoqi1BaIJElgGMb1DlYLR5bl6oDoug6O41zvTC3N8zwMw97Z+o1X3Zt9VJQbLfm89TNqlK7rOxbGuhmGga5bO6dG7bQw2c4cx1kD4nZDn6QlqfL/FnEAJICOAxQoqoyPj24pN3qcgq8zUPLz38u2Y5Ssb6y96NrtY86BMAzzBEbIWHvpjpToNAkk0OkrKjt6nAJ1oAOB9e9Md8C3GcJYOyjKh45p5+2ttBzXGcgo2ikKFOWD7wAJpPC74jte/Fmg01cMaB1aiRFo1Txf/khFXYEEOn2/Nb4QZkVApjvgK3G3N4dWPYDQNO1+yJQEsk25og6TIUP+7NDlluDGBrIJAvVb6FUzf6y7XIqxoYGQk+7GnFRFyDQukIpzSKlJ12p95V1uK+8ekIqrTP2AlMufuAik8j6kHiGTTqe3heE6kA0IZXaqBSi/f6fUNexYFMU6A2kyV0oFPFVAMplMWRhPFRCapi3lRChJklxv7JOw1RwrBQCiKLre4Ho6l8tZgrEBBChk291ueD1sJSlUEghQSDbvlJQix3G2ksslgaxLURTwPO96p5yY5/mqHlaVfZRpmiZUVYUkSRBFsWEtSRJUVa3JI03vYTehXwFG07ZnPeo2wQAAAABJRU5ErkJggg==;fontSize=12;" parent="WIyWlLk6GJQsqaUBKTNV-1" vertex="1">
          <mxGeometry x="350" y="410" width="50.11" height="70" as="geometry" />
        </mxCell>
        <mxCell id="WeWkUzsG9HBNJlI6EVqi-98" value="&lt;div&gt;Update Status =&lt;/div&gt;&lt;div&gt;&lt;br&gt;&lt;/div&gt;  &lt;b&gt;URA_INV_RCVD&lt;/b&gt;" style="rounded=1;whiteSpace=wrap;html=1;fontSize=12;align=left;" parent="WIyWlLk6GJQsqaUBKTNV-1" vertex="1">
          <mxGeometry x="420" y="360" width="100" height="50" as="geometry" />
        </mxCell>
        <mxCell id="WeWkUzsG9HBNJlI6EVqi-102" value="" style="points=[[0.145,0.145,0],[0.5,0,0],[0.855,0.145,0],[1,0.5,0],[0.855,0.855,0],[0.5,1,0],[0.145,0.855,0],[0,0.5,0]];shape=mxgraph.bpmn.event;html=1;verticalLabelPosition=bottom;labelBackgroundColor=#ffffff;verticalAlign=top;align=center;perimeter=ellipsePerimeter;outlineConnect=0;aspect=fixed;outline=eventInt;symbol=error;fontSize=12;" parent="WIyWlLk6GJQsqaUBKTNV-1" vertex="1">
          <mxGeometry x="540" y="270" width="47" height="47" as="geometry" />
        </mxCell>
        <mxCell id="WeWkUzsG9HBNJlI6EVqi-103" value="" style="aspect=fixed;html=1;points=[];align=center;image;fontSize=12;image=img/lib/azure2/general/Globe_Error.svg;" parent="WIyWlLk6GJQsqaUBKTNV-1" vertex="1">
          <mxGeometry x="460" y="160" width="30.55" height="36" as="geometry" />
        </mxCell>
        <mxCell id="WeWkUzsG9HBNJlI6EVqi-178" value="INT101_ReceivablesInvoices_ERP_URA" style="text;html=1;strokeColor=none;fillColor=none;align=center;verticalAlign=middle;whiteSpace=wrap;rounded=0;fontSize=12;fontStyle=1" parent="WIyWlLk6GJQsqaUBKTNV-1" vertex="1">
          <mxGeometry x="20" y="-270" width="40" height="20" as="geometry" />
        </mxCell>
        <mxCell id="Na5_Am36wEEzq9ezzZd5-0" value="" style="rounded=1;whiteSpace=wrap;html=1;" parent="WIyWlLk6GJQsqaUBKTNV-1" vertex="1">
          <mxGeometry x="590" y="1180" width="350" height="386" as="geometry" />
        </mxCell>
        <mxCell id="Na5_Am36wEEzq9ezzZd5-1" value="" style="shape=image;verticalLabelPosition=bottom;labelBackgroundColor=#ffffff;verticalAlign=top;aspect=fixed;imageAspect=0;image=data:image/png,iVBORw0KGgoAAAANSUhEUgAAADQAAABHCAYAAABIzmSEAAAI/0lEQVRoge2afVRT9xnHbz316Dzt2p7O1bb2aLd1L+26dmezO9vRY905a+nWelra2aOzvtRudpvGWa3utVVkUlerAsqLoIKIVLm8qAUCMSQQAkRegnkhCQghiCSQQBKSEBISvvsDcpMLebkJwTEPzznPH89z7+95ns/v+d1ffvcCgXtMiP91AdGWOaDZLnNAs13mgGa7RBXIplPAIC+BVpSNO8J09IrOQS+9CssdSTTTBJVpATksfbhdnYyWtNfA//gBcFkEBH9fjPrDz+HG5z+BKOF5CP75OLgsApW756M5eQ001/8D+4A6SuVPlYiArL1StF58H1wWgfqE53Dr2t8woKyA0zbo937XiAXGW1VQs+PQcHQFuCwC0nPrYOoUTqt4fxI2UHvxXnBZBCSZb2FQdT2ipOauesgvbAKXRUCR9wFGA0xEJMIYyKyug+izH0F05EUYWssC3ud0OWCwadE7pIZ2SAOjXR/wXpO6Ds3Ja1DzyVIY5CXhVR5AGAH1iS+Du2seVPk7/F6/ZZDgqigO+dztuFryDirJl1GT9xIEX/4M1wtfQWHZepD8neDeTIbO0j1lfGfpJ+CyCPQIUqZHAwZAuqY8cFkENNzPp1wTd5WCrPwQtRd+jL7j82H8ggiqXckPglP4KgoEe9E1qKTF6hVlgcsi0M1PnDmgwbbK8SS84zS/waZFQfVHEGX9ICREIOUUxaC0IYEWV9eYCy6LgK7pYvSBRoeNEB58Gu1X9tH8Kr0YBeXvMepIKFWkLgbJZ8E84t0UunnHwNuzEFZda3SBWnO3ojl5Dc2n6GvA1ZJ3pg3iq72JC0BWfoghHyhZ9gaIU16NHtCAsgJcFoGh7kbK12tWo7BsQ1RhvFALQfJ3Ubkc5l7wP34AvaJz0QESn/rVlB0tn7djRmA82pq6GGWNn1H5ujgJqD/87PSBTOo6cFkEhvvbKV+1LBOS9MdnFMj4BYHy4l+j29gGAHA77aja93X0iS9PD0hF7oQk403KdrocKCjfFFZh5tNPwSHJgF10OKxxA8fmobBmX8BaIgISHlgG7Y3zlF3fdgmytMcYF2VKWgTrlbcwZjfAPajCUNazYXdJb70DADC288DddR/czuHIgKy6VnBZBBxmLeUjq3aF153Mp+FQ5gEAxpxWjDQeDWt8x8mHwJemU/n5+x7EgIIdGZC24QJq475D2Q6XHVdKfsu8O4lfg7X4DbhNnXDpJXAZ5HCbOmA++10Yj93HOA5Z9ReqhuaTv0RXxeHIgDpLP0VL+m8oW2NUoi7nhfC6I82E29wFW8l6DFeyANcI7HVxMB6/n3GcgvL3qBqUl/+E1twtkQEpL22HIu8Dym7RsCFP+ybD7iyEtXgt3EMauPqaJzaHpcCYe7xLGctgPDaPUSz2lddhdZgBAOryQ2hJjYkMSJ6zEW0F3nbXqS6i49TDzLpz5ttwSM8CgBco/YnxQGNuDPP3wJS4kFEsXv7LOCncj4OczchIX4Gig4/hIGczpZduJgVUGlDrhc1QkTu9QMpcdJx8KHQRx+8f746lxz8QxuAeVMKc9gSjZ4l3eTUFlJn2UxQeXEIDCqY0oLaCXZCf30jZzeprUKQuDt2djOUYEZ+kxrn6xTCeWABzxnLacrBV/B6mpEUh41UUxVAH1o6v/gFJJvPfIhqQpvIomhJXUXaHQYobWd8LWYC1eC3cZjU1bmxYj5GWFDgU9NcAV58Y5rQlIeMVlq2nxsjPb4SKZEUGZGgtRdX+Ryjb4jCh9Ora4N05vRQjTccA9yg1zm1Ww3ptHYa5k95wXQ7YSjeG7FI+78/UENGRF9AjTIsMyGkbGD9l326ifPm8PwbvTtHrcBlktKBuUwcsBTGwlW7EZBntroQ5fWnAeD1Ji1DedHS8HoseXBYBS484MiAAaEpcBTX7EGXzJKm4FWSns3G2Y8wxRIsx5rTCpRXB1T+1kLFhA8xnnwkYj39pJXVA7RVlQXhgGWMYv0Dd/BOoT/ghZZvshqAvdTb2FtjKt8FW8QdmWr4V5rOBn0uS791lW1Jj0F60Z3pAo7ZBVO6ej35JMeUraTjMbPueptbkvYRWbR0AYKi7YXy5hfkZ2e8LXnvRHjSeWEnZ9lEbSM7WGYW5nbQIhcK/Ujml596FLOvdsGACAjmtBlTtfxg9glOUT6GrR0VRzIwBkZxtsIyYAAD9kqKJ7tyMDhAA9AjTwPtoAaxa7w4mVJxH1aWVUYcpLPsdNEYVNZnCA8vRWfpp2DBBgQBAfmETGo6uoL1g1SpyUF78WlRA+k7MB1mxBepB7yerm6ffgDjllYhgQgIBQFPSarSkxmDM54dTqbsBkvM+bp16JGKYxjPfAlm9GwM2HW0C6/79fTiGtP5KiQ6Q0zaAxuO/QFPSaowYeyi/w2VHWeMRFJeugyrlUcYgzRlPgeRsg6jN+/HD7bRDeuZt1B16BjadImIYRkDjCW2QZLyJmn89iX5JEe2aZcSEavkZkPwduPbV26jNeRHS9CVQpTwKZeo30HL6SVR/+XMUlm1AgWAvWjTltPHGdj5ECc+jKXEV7IOaacEwBvKIqbMWPTVpMLbzMDpsmnLd5R6FxWHCgPUO9OYu6Ie6YLT1wea0TLnX7bDB1CnEHWE6TJ21kRNMkrk/Gs92mQOa7TIHNNtlDmi2y70LJM0mkLPZo/GQAgBqwY7Lhd+joiweJCfUIVILQZwn1oSHE+uTh0BOoPj+onFiwZaNx9UG+H8OgkqS7XP8kMVP2DMDxJYFHBA82sTYYDEIf0m94gHSQhA3aUZl8SDjYukdlcVP6jJDIH0uSGpcLAR60CaMDlILtu99U4F8u+BT+OZ4SCeuyTmxtOAkR+vTRW9yrd7bMWl2LAT60EuOLQOg11KrgAIOCBRRhzy+caDabJ/Z0OeCzK6lLzmPD57Z88wg0yXnO5HEdIH8PEP6XJBhd+imT/FaCOKYA0l9JkyaPRXI42MMREEF3OWYPUPeGLFgZ8eCLWPYIZ9nj53tAfF2m4ybBCKLD/YM3VsyBzTbZQ5otssc0GwXxkBus+au6V0BGtVwYBfF3xW9K0D/L3LPAf0XB77R5xnIoB4AAAAASUVORK5CYII=;" parent="WIyWlLk6GJQsqaUBKTNV-1" vertex="1">
          <mxGeometry x="730.0000000000001" y="1180" width="52" height="71" as="geometry" />
        </mxCell>
        <mxCell id="Na5_Am36wEEzq9ezzZd5-2" value="&lt;font style=&quot;font-size: 20px&quot;&gt;Database Insert for failed Instance with details&amp;nbsp; &lt;/font&gt;" style="rounded=1;whiteSpace=wrap;html=1;" parent="WIyWlLk6GJQsqaUBKTNV-1" vertex="1">
          <mxGeometry x="679" y="1340" width="180" height="90" as="geometry" />
        </mxCell>
        <mxCell id="Na5_Am36wEEzq9ezzZd5-3" value="STOP /Error " style="ellipse;whiteSpace=wrap;html=1;" parent="WIyWlLk6GJQsqaUBKTNV-1" vertex="1">
          <mxGeometry x="705" y="1449.5" width="120" height="80" as="geometry" />
        </mxCell>
        <mxCell id="Na5_Am36wEEzq9ezzZd5-4" value="Based on Various Catch blocks " style="rhombus;whiteSpace=wrap;html=1;" parent="WIyWlLk6GJQsqaUBKTNV-1" vertex="1">
          <mxGeometry x="670" y="1260" width="170" height="70" as="geometry" />
        </mxCell>
        <mxCell id="Na5_Am36wEEzq9ezzZd5-5" value="" style="endArrow=classic;html=1;" parent="WIyWlLk6GJQsqaUBKTNV-1" edge="1">
          <mxGeometry width="50" height="50" relative="1" as="geometry">
            <mxPoint x="750" y="1220" as="sourcePoint" />
            <mxPoint x="750" y="1260" as="targetPoint" />
          </mxGeometry>
        </mxCell>
        <mxCell id="e01KKH6Mvmh2qi1BjheT-540" value="" style="rounded=1;whiteSpace=wrap;html=1;fontSize=12;align=left;" parent="WIyWlLk6GJQsqaUBKTNV-1" vertex="1">
          <mxGeometry x="-210" y="690" width="580" height="170" as="geometry" />
        </mxCell>
        <mxCell id="e01KKH6Mvmh2qi1BjheT-583" value="" style="edgeStyle=orthogonalEdgeStyle;rounded=0;orthogonalLoop=1;jettySize=auto;html=1;fontSize=13;startArrow=none;" parent="WIyWlLk6GJQsqaUBKTNV-1" source="e01KKH6Mvmh2qi1BjheT-590" target="e01KKH6Mvmh2qi1BjheT-544" edge="1">
          <mxGeometry relative="1" as="geometry" />
        </mxCell>
        <mxCell id="e01KKH6Mvmh2qi1BjheT-542" value="&lt;div&gt;&lt;b&gt;Call Fusion API &lt;br&gt;&lt;/b&gt;&lt;/div&gt;&lt;div&gt;&lt;b&gt;where status = &quot;URA_INV_RCVD&quot;&lt;/b&gt;&lt;br&gt;&lt;b&gt;&lt;/b&gt;&lt;/div&gt;" style="rounded=1;whiteSpace=wrap;html=1;fontSize=12;align=left;" parent="WIyWlLk6GJQsqaUBKTNV-1" vertex="1">
          <mxGeometry x="-110" y="750" width="120" height="60" as="geometry" />
        </mxCell>
        <mxCell id="e01KKH6Mvmh2qi1BjheT-543" value="Fusion_CALL" style="text;html=1;strokeColor=none;fillColor=none;align=center;verticalAlign=middle;whiteSpace=wrap;rounded=0;fontSize=12;fontStyle=1" parent="WIyWlLk6GJQsqaUBKTNV-1" vertex="1">
          <mxGeometry x="-20" y="670" width="100" height="30" as="geometry" />
        </mxCell>
        <mxCell id="e01KKH6Mvmh2qi1BjheT-544" value="&lt;div&gt;&lt;b&gt;Update Status=&lt;/b&gt;&lt;/div&gt;&lt;div&gt;&lt;b&gt;FUS_INV_COMPLETE&lt;/b&gt;&lt;/div&gt;" style="rounded=1;whiteSpace=wrap;html=1;fontSize=12;align=left;" parent="WIyWlLk6GJQsqaUBKTNV-1" vertex="1">
          <mxGeometry x="200" y="760" width="120" height="90" as="geometry" />
        </mxCell>
        <mxCell id="e01KKH6Mvmh2qi1BjheT-545" value="" style="points=[[0.145,0.145,0],[0.5,0,0],[0.855,0.145,0],[1,0.5,0],[0.855,0.855,0],[0.5,1,0],[0.145,0.855,0],[0,0.5,0]];shape=mxgraph.bpmn.event;html=1;verticalLabelPosition=bottom;labelBackgroundColor=#ffffff;verticalAlign=top;align=center;perimeter=ellipsePerimeter;outlineConnect=0;aspect=fixed;outline=eventInt;symbol=error;fontSize=12;" parent="WIyWlLk6GJQsqaUBKTNV-1" vertex="1">
          <mxGeometry x="350" y="720" width="47" height="47" as="geometry" />
        </mxCell>
        <mxCell id="e01KKH6Mvmh2qi1BjheT-590" value="Sucess" style="rhombus;whiteSpace=wrap;html=1;fontSize=13;" parent="WIyWlLk6GJQsqaUBKTNV-1" vertex="1">
          <mxGeometry x="50" y="740" width="80" height="80" as="geometry" />
        </mxCell>
        <mxCell id="e01KKH6Mvmh2qi1BjheT-591" value="" style="edgeStyle=orthogonalEdgeStyle;rounded=0;orthogonalLoop=1;jettySize=auto;html=1;fontSize=13;endArrow=none;" parent="WIyWlLk6GJQsqaUBKTNV-1" source="e01KKH6Mvmh2qi1BjheT-542" target="e01KKH6Mvmh2qi1BjheT-590" edge="1">
          <mxGeometry relative="1" as="geometry">
            <mxPoint x="89.99999999999955" y="780" as="sourcePoint" />
            <mxPoint x="199.99999999999955" y="780" as="targetPoint" />
          </mxGeometry>
        </mxCell>
        <mxCell id="e01KKH6Mvmh2qi1BjheT-592" value="Nochange In Status IN Case Of Updates" style="text;html=1;strokeColor=none;fillColor=none;align=center;verticalAlign=middle;whiteSpace=wrap;rounded=0;fontSize=13;fontStyle=1" parent="WIyWlLk6GJQsqaUBKTNV-1" vertex="1">
          <mxGeometry x="390" y="740" width="160" height="70" as="geometry" />
        </mxCell>
        <mxCell id="mXnRrFpc8J4dxXeiY_ru-5" value="&lt;font style=&quot;font-size: 10px&quot;&gt;&lt;b&gt;IF URA_INVOICE = VALUE&lt;/b&gt;&lt;/font&gt;" style="text;html=1;strokeColor=none;fillColor=none;align=center;verticalAlign=middle;whiteSpace=wrap;rounded=0;" parent="WIyWlLk6GJQsqaUBKTNV-1" vertex="1">
          <mxGeometry x="90" y="370" width="70" height="30" as="geometry" />
        </mxCell>
        <mxCell id="mXnRrFpc8J4dxXeiY_ru-9" value="&lt;div&gt;Update Status =&lt;/div&gt;&lt;div&gt;&lt;br&gt;&lt;/div&gt;  &lt;b&gt;FUS_INV_RCVD&lt;/b&gt;" style="rounded=1;whiteSpace=wrap;html=1;fontSize=12;align=left;" parent="WIyWlLk6GJQsqaUBKTNV-1" vertex="1">
          <mxGeometry x="350" y="260" width="100" height="50" as="geometry" />
        </mxCell>
        <mxCell id="mXnRrFpc8J4dxXeiY_ru-13" value="" style="shape=image;verticalLabelPosition=bottom;labelBackgroundColor=#ffffff;verticalAlign=top;aspect=fixed;imageAspect=0;image=data:image/png,iVBORw0KGgoAAAANSUhEUgAAACYAAAAnCAYAAABjYToLAAAEoUlEQVRYhe3Y6W8bRRjH8f5tIMT5BlEkDiEB5Q0VEm1aURBVQ1tEC5UQx4sKEC5NldI0pFWgSUtzOHFOJ3EdN2nrHLZ3vV67OXzE1653d+bLC8d2UMhlJWqFMtJPlizL/nifmWdn5wBP6TjwpAEbjacflkqliMfjxONxdF0nFouhaRrRaBRVVVFVFUVRiEQiu550Ov3fMK/Xi8vlwuVyce/ePXw+Hz6fj4mJCcbHxxkbG8Pr9eL1ehkdHWVkZITh4WGGhoYYHBxkcHCQgYEBPB4P/f399PX14Xa7cbvd9Pb2bpmWlhYmJibWwyool8tFIpHY2xptMFwu1z5sH7YPqxsmJQgpcYTEFuVXIUE+SZgtJAVLoKRNxrQ8Q2qOQKLAYt7GsEXduLphEhAS8iVBIFHkoneBT+5EOX5b5WSXxtXAMkraJFW0yZUcDFvgCIncprRumJDlqzW7bHDijsaJO1FuBdN4IlmaJ5d5ry1EY3eMbwcTXLufZG7ZwLQFYpuyumASsBxJruRw/X6SQzfCTD8uUrQEJUeSNhw6ZzKcdeuc649z5JbKmd4YoaTJiuFg2gJbyE3LXBfMEZKiJVjIWVzwxDnfr5MviRpcgulIMoZDsmgzEctzpEPli54YY1qepYJN0SrjdhWWNhyCi0XO9em8+0eIn8YWMe3aj0gqK7VcbsMW3J7J8H5bmHdaQxzvjDKk5lgq2BvOubpgoZTJyS6Nhk6V1qkkjxaLm/57ISFjOAQSBXpDK5x16xztUBmJ5nA2kNUFa51Ocrg9QiBRwLTltlZb5eqZtiSaKdHYE+P74ceYzjZhPza1bQk70xvjS7de7lOrjbTklPtZruSQNf+dgiUwHVn9rCMkl3xLNHSqFCyx7vsrsO8utVZz4IfLW8NO9+h81RfHWl1ZQsJCzqKxO8axTpUjHbU0dJb72vRCsboShQTXTmGVNzeDNU8u89FfCsElA8MWWEKirZR449o8L14O8vylWl74Lcjrv8/h1XKYTrmUStqksVvbWSm3A5tPGhz+U+FUt4Y/XiBVtNGzFj+PL3JhIM55Ty3feOJc9C4QXDJYMR1mlw2+9sT5sD3CaDS3YcOtC5YxHHx6ntM9MY52qPwyvoiSNvngZpi3r8/zZkstb7XMc+hGGK+WZ0DJcmy1tP2RLMniLreLSoONpEwGlSw+PY+aLnG6J0ZDp8rHHUo1RztUTnXHmEwUiKRNBpQss8sGBat879xo1HdLkmWc6UhKjsS0y7uLg1fneM71iGd+reVZ1yNebZ5lWM2V5+PqPLO3aDG7sh8TEvSsxYWBBJ/f1fj072g1n93VONcfZ3qhiLXBRN9TmJYpcfDqHK80zfDS5WA1LzfN8FrzLCPRHNYmpdsTmJSQKtrcfJDiyuQSTf5arviXaHuQIpopbTqn9gQGlduNoGgJCmtStER1bm13k7irMCHBWbPvX5vKM8BOxv/7KWkftg/bKWztwV0ikUDX9eppoqIohMNhQqEQc3NzzMzMEAwGefjwIdPT00xNTREIBPD7/XWnvb2drq6u9TCoHXVWUJWjzXA4zPz8/J6h/H4/kUhk3RX8BxpxoetB4WTGAAAAAElFTkSuQmCC;" parent="WIyWlLk6GJQsqaUBKTNV-1" vertex="1">
          <mxGeometry x="230" y="320" width="38" height="39" as="geometry" />
        </mxCell>
        <mxCell id="mXnRrFpc8J4dxXeiY_ru-19" value="&lt;font style=&quot;font-size: 10px&quot;&gt;&lt;b&gt;IF URA_INVOICE = &quot;&quot;&lt;br&gt;&lt;/b&gt;&lt;/font&gt;" style="text;html=1;strokeColor=none;fillColor=none;align=center;verticalAlign=middle;whiteSpace=wrap;rounded=0;" parent="WIyWlLk6GJQsqaUBKTNV-1" vertex="1">
          <mxGeometry x="110" y="270" width="80" height="40" as="geometry" />
        </mxCell>
        <mxCell id="mXnRrFpc8J4dxXeiY_ru-40" style="edgeStyle=orthogonalEdgeStyle;rounded=0;orthogonalLoop=1;jettySize=auto;html=1;fontSize=10;" parent="WIyWlLk6GJQsqaUBKTNV-1" source="mXnRrFpc8J4dxXeiY_ru-22" target="WeWkUzsG9HBNJlI6EVqi-96" edge="1">
          <mxGeometry relative="1" as="geometry" />
        </mxCell>
        <mxCell id="mXnRrFpc8J4dxXeiY_ru-22" value="&lt;div style=&quot;font-size: 9px&quot;&gt;1. Insert Ura_InvoiceNO&lt;br&gt;&lt;/div&gt;&lt;div style=&quot;font-size: 9px&quot;&gt;2.Update Status = &lt;/div&gt;&lt;b style=&quot;font-size: 9px&quot;&gt;URA_INV_ONLY_RCVD&lt;/b&gt;" style="rounded=1;whiteSpace=wrap;html=1;fontSize=9;align=left;" parent="WIyWlLk6GJQsqaUBKTNV-1" vertex="1">
          <mxGeometry x="190" y="350" width="120" height="60" as="geometry" />
        </mxCell>
        <mxCell id="mXnRrFpc8J4dxXeiY_ru-23" value="&lt;div&gt;Update Status =&lt;/div&gt;  &lt;div&gt;&lt;b&gt;URA_INV_TMOUT&lt;/b&gt;&lt;/div&gt;&lt;div&gt;&lt;b&gt;URA_INV_ERROR&lt;/b&gt;&lt;/div&gt;" style="rounded=1;whiteSpace=wrap;html=1;fontSize=12;align=left;" parent="WIyWlLk6GJQsqaUBKTNV-1" vertex="1">
          <mxGeometry x="610" y="220" width="110" height="60" as="geometry" />
        </mxCell>
        <mxCell id="mXnRrFpc8J4dxXeiY_ru-24" value="" style="shape=image;verticalLabelPosition=bottom;labelBackgroundColor=#ffffff;verticalAlign=top;aspect=fixed;imageAspect=0;image=data:image/png,iVBORw0KGgoAAAANSUhEUgAAACYAAAAnCAYAAABjYToLAAAEoUlEQVRYhe3Y6W8bRRjH8f5tIMT5BlEkDiEB5Q0VEm1aURBVQ1tEC5UQx4sKEC5NldI0pFWgSUtzOHFOJ3EdN2nrHLZ3vV67OXzE1653d+bLC8d2UMhlJWqFMtJPlizL/nifmWdn5wBP6TjwpAEbjacflkqliMfjxONxdF0nFouhaRrRaBRVVVFVFUVRiEQiu550Ov3fMK/Xi8vlwuVyce/ePXw+Hz6fj4mJCcbHxxkbG8Pr9eL1ehkdHWVkZITh4WGGhoYYHBxkcHCQgYEBPB4P/f399PX14Xa7cbvd9Pb2bpmWlhYmJibWwyool8tFIpHY2xptMFwu1z5sH7YPqxsmJQgpcYTEFuVXIUE+SZgtJAVLoKRNxrQ8Q2qOQKLAYt7GsEXduLphEhAS8iVBIFHkoneBT+5EOX5b5WSXxtXAMkraJFW0yZUcDFvgCIncprRumJDlqzW7bHDijsaJO1FuBdN4IlmaJ5d5ry1EY3eMbwcTXLufZG7ZwLQFYpuyumASsBxJruRw/X6SQzfCTD8uUrQEJUeSNhw6ZzKcdeuc649z5JbKmd4YoaTJiuFg2gJbyE3LXBfMEZKiJVjIWVzwxDnfr5MviRpcgulIMoZDsmgzEctzpEPli54YY1qepYJN0SrjdhWWNhyCi0XO9em8+0eIn8YWMe3aj0gqK7VcbsMW3J7J8H5bmHdaQxzvjDKk5lgq2BvOubpgoZTJyS6Nhk6V1qkkjxaLm/57ISFjOAQSBXpDK5x16xztUBmJ5nA2kNUFa51Ocrg9QiBRwLTltlZb5eqZtiSaKdHYE+P74ceYzjZhPza1bQk70xvjS7de7lOrjbTklPtZruSQNf+dgiUwHVn9rCMkl3xLNHSqFCyx7vsrsO8utVZz4IfLW8NO9+h81RfHWl1ZQsJCzqKxO8axTpUjHbU0dJb72vRCsboShQTXTmGVNzeDNU8u89FfCsElA8MWWEKirZR449o8L14O8vylWl74Lcjrv8/h1XKYTrmUStqksVvbWSm3A5tPGhz+U+FUt4Y/XiBVtNGzFj+PL3JhIM55Ty3feOJc9C4QXDJYMR1mlw2+9sT5sD3CaDS3YcOtC5YxHHx6ntM9MY52qPwyvoiSNvngZpi3r8/zZkstb7XMc+hGGK+WZ0DJcmy1tP2RLMniLreLSoONpEwGlSw+PY+aLnG6J0ZDp8rHHUo1RztUTnXHmEwUiKRNBpQss8sGBat879xo1HdLkmWc6UhKjsS0y7uLg1fneM71iGd+reVZ1yNebZ5lWM2V5+PqPLO3aDG7sh8TEvSsxYWBBJ/f1fj072g1n93VONcfZ3qhiLXBRN9TmJYpcfDqHK80zfDS5WA1LzfN8FrzLCPRHNYmpdsTmJSQKtrcfJDiyuQSTf5arviXaHuQIpopbTqn9gQGlduNoGgJCmtStER1bm13k7irMCHBWbPvX5vKM8BOxv/7KWkftg/bKWztwV0ikUDX9eppoqIohMNhQqEQc3NzzMzMEAwGefjwIdPT00xNTREIBPD7/XWnvb2drq6u9TCoHXVWUJWjzXA4zPz8/J6h/H4/kUhk3RX8BxpxoetB4WTGAAAAAElFTkSuQmCC;" parent="WIyWlLk6GJQsqaUBKTNV-1" vertex="1">
          <mxGeometry x="380" y="360" width="38" height="39" as="geometry" />
        </mxCell>
        <mxCell id="mXnRrFpc8J4dxXeiY_ru-25" value="" style="shape=image;verticalLabelPosition=bottom;labelBackgroundColor=#ffffff;verticalAlign=top;aspect=fixed;imageAspect=0;image=data:image/png,iVBORw0KGgoAAAANSUhEUgAAACYAAAAnCAYAAABjYToLAAAEoUlEQVRYhe3Y6W8bRRjH8f5tIMT5BlEkDiEB5Q0VEm1aURBVQ1tEC5UQx4sKEC5NldI0pFWgSUtzOHFOJ3EdN2nrHLZ3vV67OXzE1653d+bLC8d2UMhlJWqFMtJPlizL/nifmWdn5wBP6TjwpAEbjacflkqliMfjxONxdF0nFouhaRrRaBRVVVFVFUVRiEQiu550Ov3fMK/Xi8vlwuVyce/ePXw+Hz6fj4mJCcbHxxkbG8Pr9eL1ehkdHWVkZITh4WGGhoYYHBxkcHCQgYEBPB4P/f399PX14Xa7cbvd9Pb2bpmWlhYmJibWwyool8tFIpHY2xptMFwu1z5sH7YPqxsmJQgpcYTEFuVXIUE+SZgtJAVLoKRNxrQ8Q2qOQKLAYt7GsEXduLphEhAS8iVBIFHkoneBT+5EOX5b5WSXxtXAMkraJFW0yZUcDFvgCIncprRumJDlqzW7bHDijsaJO1FuBdN4IlmaJ5d5ry1EY3eMbwcTXLufZG7ZwLQFYpuyumASsBxJruRw/X6SQzfCTD8uUrQEJUeSNhw6ZzKcdeuc649z5JbKmd4YoaTJiuFg2gJbyE3LXBfMEZKiJVjIWVzwxDnfr5MviRpcgulIMoZDsmgzEctzpEPli54YY1qepYJN0SrjdhWWNhyCi0XO9em8+0eIn8YWMe3aj0gqK7VcbsMW3J7J8H5bmHdaQxzvjDKk5lgq2BvOubpgoZTJyS6Nhk6V1qkkjxaLm/57ISFjOAQSBXpDK5x16xztUBmJ5nA2kNUFa51Ocrg9QiBRwLTltlZb5eqZtiSaKdHYE+P74ceYzjZhPza1bQk70xvjS7de7lOrjbTklPtZruSQNf+dgiUwHVn9rCMkl3xLNHSqFCyx7vsrsO8utVZz4IfLW8NO9+h81RfHWl1ZQsJCzqKxO8axTpUjHbU0dJb72vRCsboShQTXTmGVNzeDNU8u89FfCsElA8MWWEKirZR449o8L14O8vylWl74Lcjrv8/h1XKYTrmUStqksVvbWSm3A5tPGhz+U+FUt4Y/XiBVtNGzFj+PL3JhIM55Ty3feOJc9C4QXDJYMR1mlw2+9sT5sD3CaDS3YcOtC5YxHHx6ntM9MY52qPwyvoiSNvngZpi3r8/zZkstb7XMc+hGGK+WZ0DJcmy1tP2RLMniLreLSoONpEwGlSw+PY+aLnG6J0ZDp8rHHUo1RztUTnXHmEwUiKRNBpQss8sGBat879xo1HdLkmWc6UhKjsS0y7uLg1fneM71iGd+reVZ1yNebZ5lWM2V5+PqPLO3aDG7sh8TEvSsxYWBBJ/f1fj072g1n93VONcfZ3qhiLXBRN9TmJYpcfDqHK80zfDS5WA1LzfN8FrzLCPRHNYmpdsTmJSQKtrcfJDiyuQSTf5arviXaHuQIpopbTqn9gQGlduNoGgJCmtStER1bm13k7irMCHBWbPvX5vKM8BOxv/7KWkftg/bKWztwV0ikUDX9eppoqIohMNhQqEQc3NzzMzMEAwGefjwIdPT00xNTREIBPD7/XWnvb2drq6u9TCoHXVWUJWjzXA4zPz8/J6h/H4/kUhk3RX8BxpxoetB4WTGAAAAAElFTkSuQmCC;" parent="WIyWlLk6GJQsqaUBKTNV-1" vertex="1">
          <mxGeometry x="310" y="270" width="38.97" height="40" as="geometry" />
        </mxCell>
        <mxCell id="mXnRrFpc8J4dxXeiY_ru-26" value="" style="shape=image;verticalLabelPosition=bottom;labelBackgroundColor=#ffffff;verticalAlign=top;aspect=fixed;imageAspect=0;image=data:image/png,iVBORw0KGgoAAAANSUhEUgAAACYAAAAnCAYAAABjYToLAAAEoUlEQVRYhe3Y6W8bRRjH8f5tIMT5BlEkDiEB5Q0VEm1aURBVQ1tEC5UQx4sKEC5NldI0pFWgSUtzOHFOJ3EdN2nrHLZ3vV67OXzE1653d+bLC8d2UMhlJWqFMtJPlizL/nifmWdn5wBP6TjwpAEbjacflkqliMfjxONxdF0nFouhaRrRaBRVVVFVFUVRiEQiu550Ov3fMK/Xi8vlwuVyce/ePXw+Hz6fj4mJCcbHxxkbG8Pr9eL1ehkdHWVkZITh4WGGhoYYHBxkcHCQgYEBPB4P/f399PX14Xa7cbvd9Pb2bpmWlhYmJibWwyool8tFIpHY2xptMFwu1z5sH7YPqxsmJQgpcYTEFuVXIUE+SZgtJAVLoKRNxrQ8Q2qOQKLAYt7GsEXduLphEhAS8iVBIFHkoneBT+5EOX5b5WSXxtXAMkraJFW0yZUcDFvgCIncprRumJDlqzW7bHDijsaJO1FuBdN4IlmaJ5d5ry1EY3eMbwcTXLufZG7ZwLQFYpuyumASsBxJruRw/X6SQzfCTD8uUrQEJUeSNhw6ZzKcdeuc649z5JbKmd4YoaTJiuFg2gJbyE3LXBfMEZKiJVjIWVzwxDnfr5MviRpcgulIMoZDsmgzEctzpEPli54YY1qepYJN0SrjdhWWNhyCi0XO9em8+0eIn8YWMe3aj0gqK7VcbsMW3J7J8H5bmHdaQxzvjDKk5lgq2BvOubpgoZTJyS6Nhk6V1qkkjxaLm/57ISFjOAQSBXpDK5x16xztUBmJ5nA2kNUFa51Ocrg9QiBRwLTltlZb5eqZtiSaKdHYE+P74ceYzjZhPza1bQk70xvjS7de7lOrjbTklPtZruSQNf+dgiUwHVn9rCMkl3xLNHSqFCyx7vsrsO8utVZz4IfLW8NO9+h81RfHWl1ZQsJCzqKxO8axTpUjHbU0dJb72vRCsboShQTXTmGVNzeDNU8u89FfCsElA8MWWEKirZR449o8L14O8vylWl74Lcjrv8/h1XKYTrmUStqksVvbWSm3A5tPGhz+U+FUt4Y/XiBVtNGzFj+PL3JhIM55Ty3feOJc9C4QXDJYMR1mlw2+9sT5sD3CaDS3YcOtC5YxHHx6ntM9MY52qPwyvoiSNvngZpi3r8/zZkstb7XMc+hGGK+WZ0DJcmy1tP2RLMniLreLSoONpEwGlSw+PY+aLnG6J0ZDp8rHHUo1RztUTnXHmEwUiKRNBpQss8sGBat879xo1HdLkmWc6UhKjsS0y7uLg1fneM71iGd+reVZ1yNebZ5lWM2V5+PqPLO3aDG7sh8TEvSsxYWBBJ/f1fj072g1n93VONcfZ3qhiLXBRN9TmJYpcfDqHK80zfDS5WA1LzfN8FrzLCPRHNYmpdsTmJSQKtrcfJDiyuQSTf5arviXaHuQIpopbTqn9gQGlduNoGgJCmtStER1bm13k7irMCHBWbPvX5vKM8BOxv/7KWkftg/bKWztwV0ikUDX9eppoqIohMNhQqEQc3NzzMzMEAwGefjwIdPT00xNTREIBPD7/XWnvb2drq6u9TCoHXVWUJWjzXA4zPz8/J6h/H4/kUhk3RX8BxpxoetB4WTGAAAAAElFTkSuQmCC;" parent="WIyWlLk6GJQsqaUBKTNV-1" vertex="1">
          <mxGeometry x="570" y="230" width="38" height="39" as="geometry" />
        </mxCell>
        <mxCell id="mXnRrFpc8J4dxXeiY_ru-46" style="edgeStyle=orthogonalEdgeStyle;rounded=0;orthogonalLoop=1;jettySize=auto;html=1;entryX=0;entryY=0.25;entryDx=0;entryDy=0;fontSize=10;" parent="WIyWlLk6GJQsqaUBKTNV-1" source="WeWkUzsG9HBNJlI6EVqi-93" target="mXnRrFpc8J4dxXeiY_ru-25" edge="1">
          <mxGeometry relative="1" as="geometry">
            <Array as="points">
              <mxPoint x="170" y="330" />
              <mxPoint x="170" y="280" />
            </Array>
          </mxGeometry>
        </mxCell>
        <mxCell id="mXnRrFpc8J4dxXeiY_ru-47" style="edgeStyle=orthogonalEdgeStyle;rounded=0;orthogonalLoop=1;jettySize=auto;html=1;fontSize=10;" parent="WIyWlLk6GJQsqaUBKTNV-1" source="WeWkUzsG9HBNJlI6EVqi-93" target="mXnRrFpc8J4dxXeiY_ru-22" edge="1">
          <mxGeometry relative="1" as="geometry" />
        </mxCell>
        <mxCell id="WeWkUzsG9HBNJlI6EVqi-93" value="&amp;nbsp;&amp;nbsp;&amp;nbsp;&amp;nbsp;&amp;nbsp; Sucess" style="rhombus;whiteSpace=wrap;html=1;fontSize=12;align=left;" parent="WIyWlLk6GJQsqaUBKTNV-1" vertex="1">
          <mxGeometry x="80" y="300" width="70" height="60" as="geometry" />
        </mxCell>
        <mxCell id="mXnRrFpc8J4dxXeiY_ru-38" value="Status &lt;b style=&quot;font-size: 10px&quot;&gt;&lt;br&gt;&lt;/b&gt;&lt;div style=&quot;font-size: 9px&quot;&gt;&lt;b style=&quot;font-size: 10px&quot;&gt;URA_INV_TMOUT&lt;/b&gt;&lt;/div&gt;" style="rhombus;whiteSpace=wrap;html=1;fontSize=10;" parent="WIyWlLk6GJQsqaUBKTNV-1" vertex="1">
          <mxGeometry x="-100" y="290" width="130" height="80" as="geometry" />
        </mxCell>
        <mxCell id="mXnRrFpc8J4dxXeiY_ru-43" style="edgeStyle=orthogonalEdgeStyle;rounded=0;orthogonalLoop=1;jettySize=auto;html=1;fontSize=10;" parent="WIyWlLk6GJQsqaUBKTNV-1" source="mXnRrFpc8J4dxXeiY_ru-42" target="WeWkUzsG9HBNJlI6EVqi-96" edge="1">
          <mxGeometry relative="1" as="geometry" />
        </mxCell>
        <mxCell id="mXnRrFpc8J4dxXeiY_ru-44" style="edgeStyle=orthogonalEdgeStyle;rounded=0;orthogonalLoop=1;jettySize=auto;html=1;entryX=0;entryY=0.5;entryDx=0;entryDy=0;fontSize=10;" parent="WIyWlLk6GJQsqaUBKTNV-1" source="mXnRrFpc8J4dxXeiY_ru-42" target="WeWkUzsG9HBNJlI6EVqi-96" edge="1">
          <mxGeometry relative="1" as="geometry" />
        </mxCell>
        <mxCell id="mXnRrFpc8J4dxXeiY_ru-42" value="&lt;div&gt;Status &lt;b style=&quot;font-size: 9px&quot;&gt;URA_INV_ONLY_RCVD&lt;/b&gt;&lt;/div&gt;" style="rhombus;whiteSpace=wrap;html=1;fontSize=10;" parent="WIyWlLk6GJQsqaUBKTNV-1" vertex="1">
          <mxGeometry x="-100" y="390" width="130" height="80" as="geometry" />
        </mxCell>
        <mxCell id="mXnRrFpc8J4dxXeiY_ru-49" value="" style="html=1;shadow=0;dashed=0;align=center;verticalAlign=middle;shape=mxgraph.arrows2.jumpInArrow;dy=15;dx=38;arrowHead=55;direction=north;" parent="WIyWlLk6GJQsqaUBKTNV-1" vertex="1">
          <mxGeometry x="510" y="170" width="40" height="120" as="geometry" />
        </mxCell>
        <mxCell id="mXnRrFpc8J4dxXeiY_ru-50" value="&lt;div&gt;Update Status =&lt;/div&gt;  &lt;div&gt;&lt;b&gt;URA_INV_TMOUT&lt;/b&gt;&lt;/div&gt;&lt;div&gt;&lt;b&gt;URA_INV_ERROR&lt;/b&gt;&lt;/div&gt;" style="rounded=1;whiteSpace=wrap;html=1;fontSize=12;align=left;" parent="WIyWlLk6GJQsqaUBKTNV-1" vertex="1">
          <mxGeometry x="300" y="-310" width="120" height="60" as="geometry" />
        </mxCell>
        <mxCell id="mXnRrFpc8J4dxXeiY_ru-51" value="" style="shape=image;verticalLabelPosition=bottom;labelBackgroundColor=#ffffff;verticalAlign=top;aspect=fixed;imageAspect=0;image=data:image/png,iVBORw0KGgoAAAANSUhEUgAAACYAAAAnCAYAAABjYToLAAAEoUlEQVRYhe3Y6W8bRRjH8f5tIMT5BlEkDiEB5Q0VEm1aURBVQ1tEC5UQx4sKEC5NldI0pFWgSUtzOHFOJ3EdN2nrHLZ3vV67OXzE1653d+bLC8d2UMhlJWqFMtJPlizL/nifmWdn5wBP6TjwpAEbjacflkqliMfjxONxdF0nFouhaRrRaBRVVVFVFUVRiEQiu550Ov3fMK/Xi8vlwuVyce/ePXw+Hz6fj4mJCcbHxxkbG8Pr9eL1ehkdHWVkZITh4WGGhoYYHBxkcHCQgYEBPB4P/f399PX14Xa7cbvd9Pb2bpmWlhYmJibWwyool8tFIpHY2xptMFwu1z5sH7YPqxsmJQgpcYTEFuVXIUE+SZgtJAVLoKRNxrQ8Q2qOQKLAYt7GsEXduLphEhAS8iVBIFHkoneBT+5EOX5b5WSXxtXAMkraJFW0yZUcDFvgCIncprRumJDlqzW7bHDijsaJO1FuBdN4IlmaJ5d5ry1EY3eMbwcTXLufZG7ZwLQFYpuyumASsBxJruRw/X6SQzfCTD8uUrQEJUeSNhw6ZzKcdeuc649z5JbKmd4YoaTJiuFg2gJbyE3LXBfMEZKiJVjIWVzwxDnfr5MviRpcgulIMoZDsmgzEctzpEPli54YY1qepYJN0SrjdhWWNhyCi0XO9em8+0eIn8YWMe3aj0gqK7VcbsMW3J7J8H5bmHdaQxzvjDKk5lgq2BvOubpgoZTJyS6Nhk6V1qkkjxaLm/57ISFjOAQSBXpDK5x16xztUBmJ5nA2kNUFa51Ocrg9QiBRwLTltlZb5eqZtiSaKdHYE+P74ceYzjZhPza1bQk70xvjS7de7lOrjbTklPtZruSQNf+dgiUwHVn9rCMkl3xLNHSqFCyx7vsrsO8utVZz4IfLW8NO9+h81RfHWl1ZQsJCzqKxO8axTpUjHbU0dJb72vRCsboShQTXTmGVNzeDNU8u89FfCsElA8MWWEKirZR449o8L14O8vylWl74Lcjrv8/h1XKYTrmUStqksVvbWSm3A5tPGhz+U+FUt4Y/XiBVtNGzFj+PL3JhIM55Ty3feOJc9C4QXDJYMR1mlw2+9sT5sD3CaDS3YcOtC5YxHHx6ntM9MY52qPwyvoiSNvngZpi3r8/zZkstb7XMc+hGGK+WZ0DJcmy1tP2RLMniLreLSoONpEwGlSw+PY+aLnG6J0ZDp8rHHUo1RztUTnXHmEwUiKRNBpQss8sGBat879xo1HdLkmWc6UhKjsS0y7uLg1fneM71iGd+reVZ1yNebZ5lWM2V5+PqPLO3aDG7sh8TEvSsxYWBBJ/f1fj072g1n93VONcfZ3qhiLXBRN9TmJYpcfDqHK80zfDS5WA1LzfN8FrzLCPRHNYmpdsTmJSQKtrcfJDiyuQSTf5arviXaHuQIpopbTqn9gQGlduNoGgJCmtStER1bm13k7irMCHBWbPvX5vKM8BOxv/7KWkftg/bKWztwV0ikUDX9eppoqIohMNhQqEQc3NzzMzMEAwGefjwIdPT00xNTREIBPD7/XWnvb2drq6u9TCoHXVWUJWjzXA4zPz8/J6h/H4/kUhk3RX8BxpxoetB4WTGAAAAAElFTkSuQmCC;" parent="WIyWlLk6GJQsqaUBKTNV-1" vertex="1">
          <mxGeometry x="280" y="-250" width="38" height="39" as="geometry" />
        </mxCell>
        <mxCell id="mXnRrFpc8J4dxXeiY_ru-53" value="" style="shape=image;verticalLabelPosition=bottom;labelBackgroundColor=#ffffff;verticalAlign=top;aspect=fixed;imageAspect=0;image=data:image/png,iVBORw0KGgoAAAANSUhEUgAAACYAAAAnCAYAAABjYToLAAAEoUlEQVRYhe3Y6W8bRRjH8f5tIMT5BlEkDiEB5Q0VEm1aURBVQ1tEC5UQx4sKEC5NldI0pFWgSUtzOHFOJ3EdN2nrHLZ3vV67OXzE1653d+bLC8d2UMhlJWqFMtJPlizL/nifmWdn5wBP6TjwpAEbjacflkqliMfjxONxdF0nFouhaRrRaBRVVVFVFUVRiEQiu550Ov3fMK/Xi8vlwuVyce/ePXw+Hz6fj4mJCcbHxxkbG8Pr9eL1ehkdHWVkZITh4WGGhoYYHBxkcHCQgYEBPB4P/f399PX14Xa7cbvd9Pb2bpmWlhYmJibWwyool8tFIpHY2xptMFwu1z5sH7YPqxsmJQgpcYTEFuVXIUE+SZgtJAVLoKRNxrQ8Q2qOQKLAYt7GsEXduLphEhAS8iVBIFHkoneBT+5EOX5b5WSXxtXAMkraJFW0yZUcDFvgCIncprRumJDlqzW7bHDijsaJO1FuBdN4IlmaJ5d5ry1EY3eMbwcTXLufZG7ZwLQFYpuyumASsBxJruRw/X6SQzfCTD8uUrQEJUeSNhw6ZzKcdeuc649z5JbKmd4YoaTJiuFg2gJbyE3LXBfMEZKiJVjIWVzwxDnfr5MviRpcgulIMoZDsmgzEctzpEPli54YY1qepYJN0SrjdhWWNhyCi0XO9em8+0eIn8YWMe3aj0gqK7VcbsMW3J7J8H5bmHdaQxzvjDKk5lgq2BvOubpgoZTJyS6Nhk6V1qkkjxaLm/57ISFjOAQSBXpDK5x16xztUBmJ5nA2kNUFa51Ocrg9QiBRwLTltlZb5eqZtiSaKdHYE+P74ceYzjZhPza1bQk70xvjS7de7lOrjbTklPtZruSQNf+dgiUwHVn9rCMkl3xLNHSqFCyx7vsrsO8utVZz4IfLW8NO9+h81RfHWl1ZQsJCzqKxO8axTpUjHbU0dJb72vRCsboShQTXTmGVNzeDNU8u89FfCsElA8MWWEKirZR449o8L14O8vylWl74Lcjrv8/h1XKYTrmUStqksVvbWSm3A5tPGhz+U+FUt4Y/XiBVtNGzFj+PL3JhIM55Ty3feOJc9C4QXDJYMR1mlw2+9sT5sD3CaDS3YcOtC5YxHHx6ntM9MY52qPwyvoiSNvngZpi3r8/zZkstb7XMc+hGGK+WZ0DJcmy1tP2RLMniLreLSoONpEwGlSw+PY+aLnG6J0ZDp8rHHUo1RztUTnXHmEwUiKRNBpQss8sGBat879xo1HdLkmWc6UhKjsS0y7uLg1fneM71iGd+reVZ1yNebZ5lWM2V5+PqPLO3aDG7sh8TEvSsxYWBBJ/f1fj072g1n93VONcfZ3qhiLXBRN9TmJYpcfDqHK80zfDS5WA1LzfN8FrzLCPRHNYmpdsTmJSQKtrcfJDiyuQSTf5arviXaHuQIpopbTqn9gQGlduNoGgJCmtStER1bm13k7irMCHBWbPvX5vKM8BOxv/7KWkftg/bKWztwV0ikUDX9eppoqIohMNhQqEQc3NzzMzMEAwGefjwIdPT00xNTREIBPD7/XWnvb2drq6u9TCoHXVWUJWjzXA4zPz8/J6h/H4/kUhk3RX8BxpxoetB4WTGAAAAAElFTkSuQmCC;" parent="WIyWlLk6GJQsqaUBKTNV-1" vertex="1">
          <mxGeometry x="180" y="750" width="38" height="39" as="geometry" />
        </mxCell>
        <mxCell id="mXnRrFpc8J4dxXeiY_ru-56" value="&lt;div&gt;&lt;b&gt;RETRY=&lt;/b&gt;&lt;/div&gt;&lt;div&gt;&lt;b&gt;RETRY+1&lt;/b&gt;&lt;/div&gt;" style="triangle;whiteSpace=wrap;html=1;fontSize=10;" parent="WIyWlLk6GJQsqaUBKTNV-1" vertex="1">
          <mxGeometry x="-140" y="290" width="60" height="160" as="geometry" />
        </mxCell>
        <mxCell id="mXnRrFpc8J4dxXeiY_ru-58" value="" style="points=[[0.5,0,0],[1,0.5,0],[0.5,1,0],[0,0.5,0],[0.145,0.145,0],[0.8555,0.145,0],[0.855,0.8555,0],[0.145,0.855,0]];verticalLabelPosition=bottom;html=1;verticalAlign=top;aspect=fixed;align=center;pointerEvents=1;shape=mxgraph.cisco19.rect;prIcon=clock;fillColor=#FAFAFA;strokeColor=#005073;" parent="WIyWlLk6GJQsqaUBKTNV-1" vertex="1">
          <mxGeometry x="-330" y="350" width="50" height="50" as="geometry" />
        </mxCell>
        <mxCell id="mXnRrFpc8J4dxXeiY_ru-80" value="GLOBAL FAULT HANDLER" style="text;html=1;strokeColor=none;fillColor=none;align=center;verticalAlign=middle;whiteSpace=wrap;rounded=0;fontStyle=1" parent="WIyWlLk6GJQsqaUBKTNV-1" vertex="1">
          <mxGeometry x="340" y="650" width="120" height="16" as="geometry" />
        </mxCell>
        <mxCell id="KrO5ZJWn5pO9KTqNIZPS-43" value="" style="points=[[0.145,0.145,0],[0.5,0,0],[0.855,0.145,0],[1,0.5,0],[0.855,0.855,0],[0.5,1,0],[0.145,0.855,0],[0,0.5,0]];shape=mxgraph.bpmn.event;html=1;verticalLabelPosition=bottom;labelBackgroundColor=#ffffff;verticalAlign=top;align=center;perimeter=ellipsePerimeter;outlineConnect=0;aspect=fixed;outline=eventInt;symbol=error;fontSize=12;" vertex="1" parent="WIyWlLk6GJQsqaUBKTNV-1">
          <mxGeometry x="350" y="720" width="47" height="47" as="geometry" />
        </mxCell>
        <mxCell id="KrO5ZJWn5pO9KTqNIZPS-44" value="" style="points=[[0.145,0.145,0],[0.5,0,0],[0.855,0.145,0],[1,0.5,0],[0.855,0.855,0],[0.5,1,0],[0.145,0.855,0],[0,0.5,0]];shape=mxgraph.bpmn.event;html=1;verticalLabelPosition=bottom;labelBackgroundColor=#ffffff;verticalAlign=top;align=center;perimeter=ellipsePerimeter;outlineConnect=0;aspect=fixed;outline=eventInt;symbol=error;fontSize=12;" vertex="1" parent="WIyWlLk6GJQsqaUBKTNV-1">
          <mxGeometry x="350" y="720" width="47" height="47" as="geometry" />
        </mxCell>
        <mxCell id="KrO5ZJWn5pO9KTqNIZPS-46" value="&lt;div&gt;&lt;b&gt;Call Fusion API &lt;br&gt;&lt;/b&gt;&lt;/div&gt;&lt;div&gt;&lt;b&gt;where status = &quot;URA_INV_RCVD&quot;&lt;/b&gt;&lt;br&gt;&lt;b&gt;&lt;/b&gt;&lt;/div&gt;" style="rounded=1;whiteSpace=wrap;html=1;fontSize=12;align=left;" vertex="1" parent="WIyWlLk6GJQsqaUBKTNV-1">
          <mxGeometry x="-110" y="750" width="120" height="60" as="geometry" />
        </mxCell>
        <mxCell id="KrO5ZJWn5pO9KTqNIZPS-47" value="Sucess" style="rhombus;whiteSpace=wrap;html=1;fontSize=13;" vertex="1" parent="WIyWlLk6GJQsqaUBKTNV-1">
          <mxGeometry x="50" y="740" width="80" height="80" as="geometry" />
        </mxCell>
        <mxCell id="KrO5ZJWn5pO9KTqNIZPS-48" value="" style="shape=image;verticalLabelPosition=bottom;labelBackgroundColor=#ffffff;verticalAlign=top;aspect=fixed;imageAspect=0;image=data:image/png,iVBORw0KGgoAAAANSUhEUgAAACYAAAAnCAYAAABjYToLAAAEoUlEQVRYhe3Y6W8bRRjH8f5tIMT5BlEkDiEB5Q0VEm1aURBVQ1tEC5UQx4sKEC5NldI0pFWgSUtzOHFOJ3EdN2nrHLZ3vV67OXzE1653d+bLC8d2UMhlJWqFMtJPlizL/nifmWdn5wBP6TjwpAEbjacflkqliMfjxONxdF0nFouhaRrRaBRVVVFVFUVRiEQiu550Ov3fMK/Xi8vlwuVyce/ePXw+Hz6fj4mJCcbHxxkbG8Pr9eL1ehkdHWVkZITh4WGGhoYYHBxkcHCQgYEBPB4P/f399PX14Xa7cbvd9Pb2bpmWlhYmJibWwyool8tFIpHY2xptMFwu1z5sH7YPqxsmJQgpcYTEFuVXIUE+SZgtJAVLoKRNxrQ8Q2qOQKLAYt7GsEXduLphEhAS8iVBIFHkoneBT+5EOX5b5WSXxtXAMkraJFW0yZUcDFvgCIncprRumJDlqzW7bHDijsaJO1FuBdN4IlmaJ5d5ry1EY3eMbwcTXLufZG7ZwLQFYpuyumASsBxJruRw/X6SQzfCTD8uUrQEJUeSNhw6ZzKcdeuc649z5JbKmd4YoaTJiuFg2gJbyE3LXBfMEZKiJVjIWVzwxDnfr5MviRpcgulIMoZDsmgzEctzpEPli54YY1qepYJN0SrjdhWWNhyCi0XO9em8+0eIn8YWMe3aj0gqK7VcbsMW3J7J8H5bmHdaQxzvjDKk5lgq2BvOubpgoZTJyS6Nhk6V1qkkjxaLm/57ISFjOAQSBXpDK5x16xztUBmJ5nA2kNUFa51Ocrg9QiBRwLTltlZb5eqZtiSaKdHYE+P74ceYzjZhPza1bQk70xvjS7de7lOrjbTklPtZruSQNf+dgiUwHVn9rCMkl3xLNHSqFCyx7vsrsO8utVZz4IfLW8NO9+h81RfHWl1ZQsJCzqKxO8axTpUjHbU0dJb72vRCsboShQTXTmGVNzeDNU8u89FfCsElA8MWWEKirZR449o8L14O8vylWl74Lcjrv8/h1XKYTrmUStqksVvbWSm3A5tPGhz+U+FUt4Y/XiBVtNGzFj+PL3JhIM55Ty3feOJc9C4QXDJYMR1mlw2+9sT5sD3CaDS3YcOtC5YxHHx6ntM9MY52qPwyvoiSNvngZpi3r8/zZkstb7XMc+hGGK+WZ0DJcmy1tP2RLMniLreLSoONpEwGlSw+PY+aLnG6J0ZDp8rHHUo1RztUTnXHmEwUiKRNBpQss8sGBat879xo1HdLkmWc6UhKjsS0y7uLg1fneM71iGd+reVZ1yNebZ5lWM2V5+PqPLO3aDG7sh8TEvSsxYWBBJ/f1fj072g1n93VONcfZ3qhiLXBRN9TmJYpcfDqHK80zfDS5WA1LzfN8FrzLCPRHNYmpdsTmJSQKtrcfJDiyuQSTf5arviXaHuQIpopbTqn9gQGlduNoGgJCmtStER1bm13k7irMCHBWbPvX5vKM8BOxv/7KWkftg/bKWztwV0ikUDX9eppoqIohMNhQqEQc3NzzMzMEAwGefjwIdPT00xNTREIBPD7/XWnvb2drq6u9TCoHXVWUJWjzXA4zPz8/J6h/H4/kUhk3RX8BxpxoetB4WTGAAAAAElFTkSuQmCC;" vertex="1" parent="WIyWlLk6GJQsqaUBKTNV-1">
          <mxGeometry x="180" y="750" width="38" height="39" as="geometry" />
        </mxCell>
        <mxCell id="KrO5ZJWn5pO9KTqNIZPS-55" value="Fusion_CALL" style="text;html=1;strokeColor=none;fillColor=none;align=center;verticalAlign=middle;whiteSpace=wrap;rounded=0;fontSize=12;fontStyle=1" vertex="1" parent="WIyWlLk6GJQsqaUBKTNV-1">
          <mxGeometry x="-20" y="670" width="100" height="30" as="geometry" />
        </mxCell>
        <mxCell id="KrO5ZJWn5pO9KTqNIZPS-56" value="Fusion_CALL" style="text;html=1;strokeColor=none;fillColor=none;align=center;verticalAlign=middle;whiteSpace=wrap;rounded=0;fontSize=12;fontStyle=1" vertex="1" parent="WIyWlLk6GJQsqaUBKTNV-1">
          <mxGeometry x="-20" y="670" width="100" height="30" as="geometry" />
        </mxCell>
        <mxCell id="KrO5ZJWn5pO9KTqNIZPS-61" value="" style="shape=image;verticalLabelPosition=bottom;labelBackgroundColor=#ffffff;verticalAlign=top;aspect=fixed;imageAspect=0;image=data:image/png,iVBORw0KGgoAAAANSUhEUgAAACYAAAAnCAYAAABjYToLAAAEoUlEQVRYhe3Y6W8bRRjH8f5tIMT5BlEkDiEB5Q0VEm1aURBVQ1tEC5UQx4sKEC5NldI0pFWgSUtzOHFOJ3EdN2nrHLZ3vV67OXzE1653d+bLC8d2UMhlJWqFMtJPlizL/nifmWdn5wBP6TjwpAEbjacflkqliMfjxONxdF0nFouhaRrRaBRVVVFVFUVRiEQiu550Ov3fMK/Xi8vlwuVyce/ePXw+Hz6fj4mJCcbHxxkbG8Pr9eL1ehkdHWVkZITh4WGGhoYYHBxkcHCQgYEBPB4P/f399PX14Xa7cbvd9Pb2bpmWlhYmJibWwyool8tFIpHY2xptMFwu1z5sH7YPqxsmJQgpcYTEFuVXIUE+SZgtJAVLoKRNxrQ8Q2qOQKLAYt7GsEXduLphEhAS8iVBIFHkoneBT+5EOX5b5WSXxtXAMkraJFW0yZUcDFvgCIncprRumJDlqzW7bHDijsaJO1FuBdN4IlmaJ5d5ry1EY3eMbwcTXLufZG7ZwLQFYpuyumASsBxJruRw/X6SQzfCTD8uUrQEJUeSNhw6ZzKcdeuc649z5JbKmd4YoaTJiuFg2gJbyE3LXBfMEZKiJVjIWVzwxDnfr5MviRpcgulIMoZDsmgzEctzpEPli54YY1qepYJN0SrjdhWWNhyCi0XO9em8+0eIn8YWMe3aj0gqK7VcbsMW3J7J8H5bmHdaQxzvjDKk5lgq2BvOubpgoZTJyS6Nhk6V1qkkjxaLm/57ISFjOAQSBXpDK5x16xztUBmJ5nA2kNUFa51Ocrg9QiBRwLTltlZb5eqZtiSaKdHYE+P74ceYzjZhPza1bQk70xvjS7de7lOrjbTklPtZruSQNf+dgiUwHVn9rCMkl3xLNHSqFCyx7vsrsO8utVZz4IfLW8NO9+h81RfHWl1ZQsJCzqKxO8axTpUjHbU0dJb72vRCsboShQTXTmGVNzeDNU8u89FfCsElA8MWWEKirZR449o8L14O8vylWl74Lcjrv8/h1XKYTrmUStqksVvbWSm3A5tPGhz+U+FUt4Y/XiBVtNGzFj+PL3JhIM55Ty3feOJc9C4QXDJYMR1mlw2+9sT5sD3CaDS3YcOtC5YxHHx6ntM9MY52qPwyvoiSNvngZpi3r8/zZkstb7XMc+hGGK+WZ0DJcmy1tP2RLMniLreLSoONpEwGlSw+PY+aLnG6J0ZDp8rHHUo1RztUTnXHmEwUiKRNBpQss8sGBat879xo1HdLkmWc6UhKjsS0y7uLg1fneM71iGd+reVZ1yNebZ5lWM2V5+PqPLO3aDG7sh8TEvSsxYWBBJ/f1fj072g1n93VONcfZ3qhiLXBRN9TmJYpcfDqHK80zfDS5WA1LzfN8FrzLCPRHNYmpdsTmJSQKtrcfJDiyuQSTf5arviXaHuQIpopbTqn9gQGlduNoGgJCmtStER1bm13k7irMCHBWbPvX5vKM8BOxv/7KWkftg/bKWztwV0ikUDX9eppoqIohMNhQqEQc3NzzMzMEAwGefjwIdPT00xNTREIBPD7/XWnvb2drq6u9TCoHXVWUJWjzXA4zPz8/J6h/H4/kUhk3RX8BxpxoetB4WTGAAAAAElFTkSuQmCC;" vertex="1" parent="WIyWlLk6GJQsqaUBKTNV-1">
          <mxGeometry x="180" y="750" width="38" height="39" as="geometry" />
        </mxCell>
        <mxCell id="KrO5ZJWn5pO9KTqNIZPS-63" value="" style="shape=image;verticalLabelPosition=bottom;labelBackgroundColor=#ffffff;verticalAlign=top;aspect=fixed;imageAspect=0;image=data:image/png,iVBORw0KGgoAAAANSUhEUgAAACYAAAAnCAYAAABjYToLAAAEoUlEQVRYhe3Y6W8bRRjH8f5tIMT5BlEkDiEB5Q0VEm1aURBVQ1tEC5UQx4sKEC5NldI0pFWgSUtzOHFOJ3EdN2nrHLZ3vV67OXzE1653d+bLC8d2UMhlJWqFMtJPlizL/nifmWdn5wBP6TjwpAEbjacflkqliMfjxONxdF0nFouhaRrRaBRVVVFVFUVRiEQiu550Ov3fMK/Xi8vlwuVyce/ePXw+Hz6fj4mJCcbHxxkbG8Pr9eL1ehkdHWVkZITh4WGGhoYYHBxkcHCQgYEBPB4P/f399PX14Xa7cbvd9Pb2bpmWlhYmJibWwyool8tFIpHY2xptMFwu1z5sH7YPqxsmJQgpcYTEFuVXIUE+SZgtJAVLoKRNxrQ8Q2qOQKLAYt7GsEXduLphEhAS8iVBIFHkoneBT+5EOX5b5WSXxtXAMkraJFW0yZUcDFvgCIncprRumJDlqzW7bHDijsaJO1FuBdN4IlmaJ5d5ry1EY3eMbwcTXLufZG7ZwLQFYpuyumASsBxJruRw/X6SQzfCTD8uUrQEJUeSNhw6ZzKcdeuc649z5JbKmd4YoaTJiuFg2gJbyE3LXBfMEZKiJVjIWVzwxDnfr5MviRpcgulIMoZDsmgzEctzpEPli54YY1qepYJN0SrjdhWWNhyCi0XO9em8+0eIn8YWMe3aj0gqK7VcbsMW3J7J8H5bmHdaQxzvjDKk5lgq2BvOubpgoZTJyS6Nhk6V1qkkjxaLm/57ISFjOAQSBXpDK5x16xztUBmJ5nA2kNUFa51Ocrg9QiBRwLTltlZb5eqZtiSaKdHYE+P74ceYzjZhPza1bQk70xvjS7de7lOrjbTklPtZruSQNf+dgiUwHVn9rCMkl3xLNHSqFCyx7vsrsO8utVZz4IfLW8NO9+h81RfHWl1ZQsJCzqKxO8axTpUjHbU0dJb72vRCsboShQTXTmGVNzeDNU8u89FfCsElA8MWWEKirZR449o8L14O8vylWl74Lcjrv8/h1XKYTrmUStqksVvbWSm3A5tPGhz+U+FUt4Y/XiBVtNGzFj+PL3JhIM55Ty3feOJc9C4QXDJYMR1mlw2+9sT5sD3CaDS3YcOtC5YxHHx6ntM9MY52qPwyvoiSNvngZpi3r8/zZkstb7XMc+hGGK+WZ0DJcmy1tP2RLMniLreLSoONpEwGlSw+PY+aLnG6J0ZDp8rHHUo1RztUTnXHmEwUiKRNBpQss8sGBat879xo1HdLkmWc6UhKjsS0y7uLg1fneM71iGd+reVZ1yNebZ5lWM2V5+PqPLO3aDG7sh8TEvSsxYWBBJ/f1fj072g1n93VONcfZ3qhiLXBRN9TmJYpcfDqHK80zfDS5WA1LzfN8FrzLCPRHNYmpdsTmJSQKtrcfJDiyuQSTf5arviXaHuQIpopbTqn9gQGlduNoGgJCmtStER1bm13k7irMCHBWbPvX5vKM8BOxv/7KWkftg/bKWztwV0ikUDX9eppoqIohMNhQqEQc3NzzMzMEAwGefjwIdPT00xNTREIBPD7/XWnvb2drq6u9TCoHXVWUJWjzXA4zPz8/J6h/H4/kUhk3RX8BxpxoetB4WTGAAAAAElFTkSuQmCC;" vertex="1" parent="WIyWlLk6GJQsqaUBKTNV-1">
          <mxGeometry x="180" y="750" width="38" height="39" as="geometry" />
        </mxCell>
        <mxCell id="KrO5ZJWn5pO9KTqNIZPS-64" value="" style="rounded=1;whiteSpace=wrap;html=1;" vertex="1" parent="WIyWlLk6GJQsqaUBKTNV-1">
          <mxGeometry x="-740" y="-540" width="310" height="320" as="geometry" />
        </mxCell>
        <mxCell id="KrO5ZJWn5pO9KTqNIZPS-65" value="Insert_TO_Database" style="rounded=1;whiteSpace=wrap;html=1;" vertex="1" parent="WIyWlLk6GJQsqaUBKTNV-1">
          <mxGeometry x="-650" y="-340" width="150" height="30" as="geometry" />
        </mxCell>
        <mxCell id="KrO5ZJWn5pO9KTqNIZPS-66" value="&lt;div&gt;Transformation/&lt;/div&gt;&lt;div&gt;Massage&lt;/div&gt;" style="rounded=1;whiteSpace=wrap;html=1;" vertex="1" parent="WIyWlLk6GJQsqaUBKTNV-1">
          <mxGeometry x="-630" y="-430" width="110" height="40" as="geometry" />
        </mxCell>
        <mxCell id="KrO5ZJWn5pO9KTqNIZPS-67" value="" style="outlineConnect=0;fontColor=#232F3E;gradientColor=none;fillColor=#FF4F8B;strokeColor=none;dashed=0;verticalLabelPosition=bottom;verticalAlign=top;align=center;html=1;fontSize=12;fontStyle=0;aspect=fixed;pointerEvents=1;shape=mxgraph.aws4.eventbridge_saas_partner_event_bus_resource;" vertex="1" parent="WIyWlLk6GJQsqaUBKTNV-1">
          <mxGeometry x="-620" y="-540" width="78" height="78" as="geometry" />
        </mxCell>
        <mxCell id="KrO5ZJWn5pO9KTqNIZPS-104" value="" style="rounded=1;whiteSpace=wrap;html=1;" vertex="1" parent="WIyWlLk6GJQsqaUBKTNV-1">
          <mxGeometry x="-260" y="-230" width="540" height="170" as="geometry" />
        </mxCell>
        <mxCell id="KrO5ZJWn5pO9KTqNIZPS-105" value="ScopeT109" style="text;html=1;strokeColor=none;fillColor=none;align=center;verticalAlign=middle;whiteSpace=wrap;rounded=0;" vertex="1" parent="WIyWlLk6GJQsqaUBKTNV-1">
          <mxGeometry x="-200" y="-220" width="40" height="20" as="geometry" />
        </mxCell>
        <mxCell id="KrO5ZJWn5pO9KTqNIZPS-106" value="" style="shape=image;verticalLabelPosition=bottom;labelBackgroundColor=#ffffff;verticalAlign=top;aspect=fixed;imageAspect=0;image=data:image/png,iVBORw0KGgoAAAANSUhEUgAAACAAAAAzCAYAAAD2OArBAAALCElEQVRYhc2Y2Y9cV17H639BI7G8IEEIQ9AExAghBBIPaISQwgs88ICEBgkySAyaEQHNRJNRJvHWiePY43jJ2O50dy3dbSe2Y4OTTGz3vld1dW13X6rq1nLvPcuHh1rc5bjtyUM085N+unVPnXPu97ed3+93MvySKfMrAUBr/csFoJQ6EoRS6ktteHgfrfX4/aj9xxpQSqGUQkpJmqZIKZFSIoQYjz+LR/NGaw4LJqV8MgApJUEQ0Gg08DwP27YxDAPbtrEsC8uycF134v0otm0b27YxTRPbtgmCgE6n81SNZaIo4t69e2SzWTY3NzFNc7yZaZoYhoFpms9kwzCwLAvHcbAsC8MwqFarlMtl2u32kabMeJ7H3Nwcs7OzGIZxpD2fRSMzHqZOp0OlUqHdbh+tAd/3yeVyFAoFfN8HmLDpaPNn8cjmIwbo9/uUy2WazebRAMIwpFAoMDMzg+M4T5z0ZSJBaz12uBGAKIqeDiCXy5LP5/E8b0LtQohfSHqtNUpK5CGNAcRxzP7+Pq1W6+gw9Hyfwvx1ZnOLuGYDAfRRoAAJkj7oBEgHA4CWGi01CAFKIQCBBtRE7He7ffb2iqSpJE0fhWGSJI8ANNstZucKzM1eJwxqoCUK6AFSAAiaUnOn1uNeLcLsKdJDwiitkWiEFAghJqSL44T9/Qph+MgHRmfDyKwZPwxYWPiQ+flbOE4J4gG6vlagwe9LfrCwwV+9u8k3Ty7z7QWbq7sJu04bKdpAG0QbpRKUfvQRIQRpmlKp1PGDcGzSwySEIOMFPvn563yQu4HROBigQ4LugYaPbMWfnz3gD95c5/d+8pAX397mz97d4qXLG7y71qLYA6ESIEHDgIcSxnFMqVSm041JhUZpjdIQp8nYVzJRp0M2P890toDjhaRAomN6vQ65FYt/mNvl96dqPHdij29MbfKNEw95/vgyvzO1w5+8V+MfZ2ucfehTbg3945CE3V6P0v4B/Vjy+EEs1QBQplTepzC/yFw2ixUGSAFKST53U166sMPXjy/xxydW+N3TNZ5/a5/njy3zwsklXnhrnedPbvCHx1f5i7N7XFgOAIXQehwNvV6fYumA1Y1tDmom+5UalWqNg0ptAEApMjdv32JuLk8uV8AMTEhBCcWVUocXjq/x9VPrfPPEfV6cWuOFYw95cWqVF9/e5rkTWzx3bIM/Pb3J37y3zcX7BqlISbVGaTX29vXNbabn8ly/eZfrNz+msPgh1298hFQKIRWZ3b09rs1kuZqfx3cakGqkEjwIE/72wha/+eZ9fu21bX7j1U/59deW+drrO3zth8v85bki//Wxw6lPGpz6tMHnje5YvaNQjJOE3eI+6ztFStU65VqdvfIB5UoVqTRSDX1gNpvjSm4ex7YZHAGKCFjY9vnB7SL/MV/juwt1vnOjxr/e8ni5cMCZzwzOPHT49+sH/M/tOtPbIXcqIftBd2BvLUiSPge1Gp045nEa+Uqm2QzJ5fPM5eYxbXcoAUgNqYKon+JHHZxeFy9qUYs019Z9fniryLcu7fDbJ4r83c+KnLhX5/KSz1p9mHh0StTvslutEbY7aHVEPRA2m2QLefL5Ao5tARot08EThqccpPQAQSeF6dWAb8+s80dvL/Nbx3Z56f0DfnK3zvkHFkuNaKgBSdTrslvep9Vqwxfi4BCAXD5HPp/Dtk1AgUxAS9AKNQwXNCgliFG0Y9iqhLz+vxX++mqRf841eOP/DKbuH/BZo8VI4b1+j1K5SNj2GRzlR2kgn2Mum8e27aF1hqwVWg/LKg0yTUjlMCfolFYfHpiSmyWXXS8iSiBJBtKjBJ24T6leJ4x66CMSaqY5NMFc4Tq24w9SitbDE20CDkgJSqK0QMp48C4AnaBJ6KORKNAClCCOexxUKrSbESo9Ihs2m02y+Tyz+QUM2xskQQVKD55ykBJQapR6BVpKtBBIrUjQKKkQMqEnY5SSg8Va0etF7B0UcaOA+Gk+kM3nmJ2dwzCtobSH5R4hlyglSNIEoRUpQwcVEikVWgm07KJlPPgN9JKUSqVBFHSO8sFHTjhfyOHY5sDuSjAwmhrYc1gfKCBFkyIHfiE0CIXUmj4wqhqEHsztxjGl8h5ByxnCfQKAdrvN4uIi2dw8lWodISVJKuj1E5JUkApBnAxSqxCCOI5J05RUpPTjmCRJEEIg0pQkjsf/x3FMFEUcHFTodrrjVPx4s5JJ05SdnR0KC/M8WHrI+uYGSyvLPFxeYmVt9RGvrrK6usr6+jobGxusr6+zurrKysrKePzw2MrKCru7u+zv709UQF/QgFKKVAiEkig0QkkSkZLKwdjoKYSY6HiEEOMuKE3TMR8eG/1+GmUer3gfb6dGFe6o2h090zQdFx6jEv5pfcRo7WETwLA3FELQ6/VotVr4vo/neXieh+u6+L5PEASEYYjv+xMchiHNZpMgCMbrHMfBtm1c1yUIAvr9/hfK+sNAMkopms0mvu+P+79Rj+e67njTw22X4zjjfnHEjuOMQR8G4nkeQRDQ7XZ5nAYlWRRN9IKjDSzLGvZ9FvV6fdxsjjb1fZ96vY5hGOP5jUYD27bxfX8MYAQuDEPSNJ3QhtaazEgS17WxbBPXtTGMOnvFPba2NyjubrG9vUmj0aAVdXCGQE3LolQqUatVCYKQRqPB3t4utVoN13EwTHMA4pDWut3u2HfGAMIwxLItDM+iY/s4poPlWMxdO8f3/+17/NP3prh45SKGG/DpzGlOnb9AveZwdzHLq6/8J68fO8Odjxa5cPks3/n+j5n+YIHVhkPLtjEdH9e2McwavjvQ2igkxz4QBAGmZWL5Nn7VoOmGGLaDUdvg0okLvFPYoGxUWVv6nFde/nv++9gUta1PmD53gcLNj5m5cpZXv/sv/PSDLJ+slMjP32b67jKi41M3QzzPwXYauM7AL+JhdTQG4Ps+hmnScEx8x8Vv2Jiuh+NVmT59hXcW1giiFna1yq0b5zg/k2f99kV+OnWW5eUdFgtv8dqrL/PG6cv86OQ7/OjHb3Dy8g1U6mJZHVzXxXKqWObg8qPf708CCMNw4CyejesHeLUGhudhBQZXpy4xlfsM2/fptAKKu3e5NJtn9/4cl46fYW2jyIeLZ3nr2CvM331A4eZdzp2/yLmZW4jUx2iEOK6N5Rl4bjgBYHwOhGE4dCoDw3FoOjY106IR2EyfeZ/3by9TNy0sv8XB5h2uzc1QLRUpXHyP8yff5Pjbp/nZtcvM5q7x+ql3uHJ1lp9v7RGGHo7j43oupmfj2u6ED4wBBEGAYRgDj3V9bLuOY3vUPI+N+6sslSwapontuJjVMmubqzgNh8rqErdv5Ll5Z4WtrV1+vnSb7MJHPLi/Qs0z8fwI1zUxbRvD9XAsi06nM3GyAmRardY4XDw7pOFWaTo+VdvD9xzcoIPj2vimheU2cQOXwDYJLQvXd3G8DoEbEDQtPC/EtTzs0MJymniWiW07WH5I6Hokh0Jw3B0nSULUiXBcF6/mUm9WaZsuNdPD8hoElovl1gmNgLpjYLgWjlfGMl1My6Hu1nFsG99yscwGjmFgOw4NyyQ0fXwvwGs2SXvxxJXPKDdkRgml3+/TDSL8rkc3bBE2I8IopO0HhC2fXrOL1/LxmwFh26Td6hK0O4SRQysMaYUd2q2QVuDTDFu0Ok26rS7dTo9ePOl4o29qrb94V6yVRjzhAnJyTCGlGPLwcnJ4QTGap5UelnZPp1+Ny+qvkp5UAzwRwLMmftmPPYmfCuBZm35V9AuZ4KsE8P+d2wxu87ZElgAAAABJRU5ErkJggg==;" vertex="1" parent="WIyWlLk6GJQsqaUBKTNV-1">
          <mxGeometry x="-200" y="-160" width="32" height="51" as="geometry" />
        </mxCell>
        <mxCell id="KrO5ZJWn5pO9KTqNIZPS-114" value="" style="edgeStyle=orthogonalEdgeStyle;rounded=0;orthogonalLoop=1;jettySize=auto;html=1;" edge="1" parent="WIyWlLk6GJQsqaUBKTNV-1" source="KrO5ZJWn5pO9KTqNIZPS-107" target="KrO5ZJWn5pO9KTqNIZPS-108">
          <mxGeometry relative="1" as="geometry" />
        </mxCell>
        <mxCell id="KrO5ZJWn5pO9KTqNIZPS-107" value="Sucess" style="rhombus;whiteSpace=wrap;html=1;" vertex="1" parent="WIyWlLk6GJQsqaUBKTNV-1">
          <mxGeometry x="-140" y="-180" width="80" height="80" as="geometry" />
        </mxCell>
        <mxCell id="KrO5ZJWn5pO9KTqNIZPS-116" style="edgeStyle=orthogonalEdgeStyle;rounded=0;orthogonalLoop=1;jettySize=auto;html=1;" edge="1" parent="WIyWlLk6GJQsqaUBKTNV-1" source="KrO5ZJWn5pO9KTqNIZPS-108">
          <mxGeometry relative="1" as="geometry">
            <mxPoint x="-460" y="40" as="targetPoint" />
            <Array as="points">
              <mxPoint x="160" y="-140" />
              <mxPoint x="160" y="10" />
              <mxPoint x="-460" y="10" />
            </Array>
          </mxGeometry>
        </mxCell>
        <mxCell id="KrO5ZJWn5pO9KTqNIZPS-108" value="Tax Number,&lt;br&gt;Digital Signature,&lt;br&gt;QR Code,URA &lt;br&gt;Invoice ID,&lt;br&gt;Application ID (CM)" style="rounded=1;whiteSpace=wrap;html=1;" vertex="1" parent="WIyWlLk6GJQsqaUBKTNV-1">
          <mxGeometry x="-30" y="-180" width="150" height="80" as="geometry" />
        </mxCell>
        <mxCell id="KrO5ZJWn5pO9KTqNIZPS-111" value="" style="rounded=1;whiteSpace=wrap;html=1;" vertex="1" parent="WIyWlLk6GJQsqaUBKTNV-1">
          <mxGeometry x="-740" y="-130" width="260" height="680" as="geometry" />
        </mxCell>
        <mxCell id="KrO5ZJWn5pO9KTqNIZPS-115" style="edgeStyle=orthogonalEdgeStyle;rounded=0;orthogonalLoop=1;jettySize=auto;html=1;" edge="1" parent="WIyWlLk6GJQsqaUBKTNV-1" source="KrO5ZJWn5pO9KTqNIZPS-112" target="KrO5ZJWn5pO9KTqNIZPS-104">
          <mxGeometry relative="1" as="geometry" />
        </mxCell>
        <mxCell id="KrO5ZJWn5pO9KTqNIZPS-112" value="Call T109 Api " style="rounded=1;whiteSpace=wrap;html=1;" vertex="1" parent="WIyWlLk6GJQsqaUBKTNV-1">
          <mxGeometry x="-690" y="-60" width="150" height="60" as="geometry" />
        </mxCell>
        <mxCell id="KrO5ZJWn5pO9KTqNIZPS-113" value="" style="shape=image;verticalLabelPosition=bottom;labelBackgroundColor=#ffffff;verticalAlign=top;aspect=fixed;imageAspect=0;image=data:image/png,iVBORw0KGgoAAAANSUhEUgAAANsAAAAsCAYAAADsFM3hAAAJfElEQVR4nO2c62/b1hmH8z/5UxzHWeasQTcBuxTFhn2wgSZIi21VMmBD2wnIEGSwsdy6sW0QWVGuddxgrWs12dbVcRLbzX20kzSSfGVk+RLJ0izHtsToQv72QT7EEUVS1DVJ8z7AASzRPDyizsP3PYdH3ASCIBrCptDsLKhQoVL/sul5204QrwokG0E0CJKNIBoEyUYQDYJkI4gGQbIRRIMg2QiiQZBsBNEgSDaCaBAlZVMBKCqQVVRkFRU5RYWi5t8nCMI+JWVL51SEV9K4/ySJe/Pr+C6SwpPVDDIK6UYQ5WAqmwpgOZXFN1MrcA3M4Y2eKew8M45ffTaNv1xbwEhoFavPcnWPdpIkweFwoKmpqaA4HA5IkgQASCQS6OjoKPqfpqYmuFwuyLIMAPD5fAXbBEEAAMiyDJfLZbh/U1MTfD5f2e0WBAEdHR1IJBLae2bt5NsoiqK2H2tXJcdvFHx7K0X/vfBFFMUatrZ8VFXBf+euoWf0GI5cd6JzcA+OXHeiZ/Qo7s1dhaLmbNdlKJsKQM4q6Pcv480LU2hxB7D5hF8rLe4A2v8xgy8eLePu/DrEhSTCK2lkcrXXTZIktLe3a2IxBEHQOinrxFZfjM/nK+oUgiBowjFq0cETiQRcLhdcLldBm4zayY7H2vEyyMaft1rJxl9wXhRm4o9w/Oaf0Dm4x7R8cuMDTMe/s1WfoWw5RYU/msK7l0JocQfQzInGSqsngDd6prCrT8LuPgnvfR3G+bEYltYzyKlqzaKcmWz8+3ZkMxJLkiQ4nc6CjlKLDu7z+SAIQlEnMmsn32FfNtlqwYso22TsvqVk+jK+NFqyTkPZMjkV/YFl/OTsRJFkZqXZ7cePz47j0PAikhkFSo2Eq5VsRpHNCDsdXBRF087B9hdFsajt1crGojlLRVkqbXSOeCH4VJxPv6226VNr1iY+5RMEoSiy8dv5c2TWdraPlWyiKMLpdMLpdMLhcGBkZAROp1NrHzufgiCYDhHYNjsXiVRmDR8O/76kYAOTFzGxNIZjQ/twdGgv1tOrlvUWyMZmHpMZBafEJWzzBGzLtvmEH1vcfrx2ehz9gWUkMwrSufwMZjVzKeWkkVY5v77zlJKl0miij5YswgHVp5GCIBR0UnYOWNpqdBz9MfmLjn4bf2wWnY3OiVkaadR29n9mbZdl2XTMxraLoljwXbILBP8d8cKyz+Xz+bR2lBM5h6WvSor2+cPjAIBn2RS8dw6ic3APrs/0W9aryaaoQEbJzzyeH4thd5+Elu7yZGPCOc5N4K2+GXzwzRz+OZFAQs5VPIFiNkHCX03tRDazOms9ZvP5fAX78lGw2gkSffrGdzD+b0mS0NXVpXVUs3Nld7zFd159O/g69O2z2mbWdiP07dRfgI2+M1an/kJkh5N3DliK5r1zEHI2CQD4dPSI9n737T9b1qvJJmcVDIdW8YueSWzzBPJjNXd5om0+4UfzhnBbuwNo9QTQ5g3iwOA8witp5CoIcWapGH/yypWNr9vhcBhGmkpkKxVh7bSzUtkSiQScTickSSoQ3mrcaNXJWTRhKV97e7ulbJFIpOi8NUo2o/NajWxdg29rAh0b2odjQ/sKXkfWwgCAgcmLRSJaocnmj6bw0/OT2FKBYKXKD71BfHI7imXZ/jQpwyiN1EtSqhPzHVH/vllaV4lsZmM51tHqKRvb3tvbi66uLu2zVhLZ9Me1m0Z+XyJbJydbdG0OK3Icnz88js7BPZhNTAAAHi7eNIx6Vmiy7b8yj63dxjOP1RZ2q0BcWLf9gRlmYzarsYcRRve9jCZNqpGNH5/xsM4SCoXqKhuLRvz/lDNmY+c6GAwWjSP5+42VjtnqJZu+PqMxWznfp+f2AS2K3Q1f0d5fkeMAgOjanKFo7lv7LevVZHOcm6hZVGOpZMtGKvkDTwCvnxnH1Zmntj8ww0w2dkJdLhcikYhp+mY2U2Y2SVLpbKRZO/m29vb21lU2s4uO3dlIfhKCTyPZcfXyuVwu3Lp1y/Qc66OulWxWCwrsyMaOYTYbWY5sQzO+ojFadG0OQF44Pq3ky/XpLy3r1WTbcSpYs6jW7PajzRvE+/8J46/Dizg0vIgjI0/gj6Zsf2CCeF4kM6uGQg1MXtRmHvXlyHUn1tIrlvVqsr3d/xgtVaSRze58utjqCWD7ySB++dkUwitprKcVJDP5kqX1lMRLwsTSaFk3tYPR0pNzmmz9gWW0eYMVp5Kt3QHsvRzCmdEYvvQvY2B6BXJWQWAphb/fjOB2eK2i2UiCeF5Mxx/i4xvvW0r20bfvYTL2wFZ9mmzxZBbCzQh2eINlR7jmE3784V9hjC0m8fRZDqmNSLb6LIevJ1ew8/Q4eu7H67J2kiDqSU7J4m54EOfFwzh07XfoHNyDQ9d+i/PiYdwNX0FWydiuq+CmdnQtgy8eLeMd32O8dnocrd0BbLVRWj0B+IIJyFkFqayCCw/i2Hd5Frv6JLzZO4U2bxDnxmJIZRXtd3GUUhKvGppsKoCcqiKVUbCcyiK6nkFkzV6JrmWQ2hiTnR2NYefp8fyN8e4Atrj92H4yiHOjMRweWcTPPp3Ez3sm8cd/h5/jxyaIxlP1YxEUNb9wWc7m08ZfX5zGFre/IA3d5gng3GgMB68uoM0bxI5TQfzmq5DtY/BTuma/M5MkCV6vV3vNr4XUTxubLdUiiHpStWzpnIqj3z5BmzeI1o1Iph/vbfME8mlkRkEmp+ZLBWmkKIqGgjAZefn4G8xsP/1KErZqnSAaQdWyZRUVFx7E8e6lEN7pf4w2b/H9OibbVFzG2GIS9xeTmIiV/9sl/SJfAAU3XPmVEGwhLnvt9XqLZDWqjyDqRdWyqQBUNZ9OpnMq9l4OmaaR+6/Mo8Wdn1TZ3Ve80qIUZpFIluWC9YBGK+/ZvkZLegiiEdT0UXaKqmLo8Sp29Un40alxtHryYm0/mZ+NvBRM4MMbT/C3GxFceBAvq269UDz6SKaXkpePpZxsJTulkUSjqKlsKvK/ibs3v46LD/+HMxvRjE39p6u4z6YXikefHnq93oIV4UaSGj0SgSDqSc0f0qqq+WeYsBnKgemneP3MOC48iFd1b81scgQoThv1v+fiV56LovjCPtuD+H5T1yciKyoQS2YhLqxj4WkaObVy2awmM/RpI/8jTn7lOU37E8+TusrGnmmiqGr+AUC0aIR4haFn/RNEgyDZCKJBkGwE0SBINoJoECQbQTSITaHZWVChQqX+5f/GD+DONsJ7rwAAAABJRU5ErkJggg==;direction=south;" vertex="1" parent="WIyWlLk6GJQsqaUBKTNV-1">
          <mxGeometry x="220" y="-240" width="40" height="199.1" as="geometry" />
        </mxCell>
        <mxCell id="KrO5ZJWn5pO9KTqNIZPS-117" value="Sucess " style="rhombus;whiteSpace=wrap;html=1;" vertex="1" parent="WIyWlLk6GJQsqaUBKTNV-1">
          <mxGeometry x="-650" y="20" width="80" height="80" as="geometry" />
        </mxCell>
      </root>
    </mxGraphModel>
  </diagram>
</mxfile>
